<?xml version="1.0" standalone="no"?>
<!DOCTYPE svg PUBLIC "-//W3C//DTD SVG 20010904//EN"
 "http://www.w3.org/TR/2001/REC-SVG-20010904/DTD/svg10.dtd">
<svg version="1.0" xmlns="http://www.w3.org/2000/svg"
 width="376.000000pt" height="336.000000pt" viewBox="0 0 376.000000 336.000000"
 preserveAspectRatio="xMidYMid meet">

<g transform="translate(0.000000,336.000000) scale(0.100000,-0.100000)"
fill="#2B3035" stroke="none">
<path d="M3010 3135 c-10 -12 -9 -15 6 -15 16 -1 15 -3 -5 -14 -14 -8 -31 -12
-38 -9 -7 3 -13 0 -13 -5 0 -6 10 -9 23 -6 12 3 31 6 41 7 22 2 30 32 11 47
-9 7 -16 6 -25 -5z"/>
<path d="M3070 3093 c0 -7 -13 -11 -32 -10 -19 1 -33 -3 -36 -12 -3 -9 1 -11
15 -7 17 6 20 3 16 -19 -4 -17 0 -27 12 -31 13 -6 14 -9 3 -16 -11 -8 -11 -9
0 -6 8 2 13 7 12 12 -1 5 5 13 14 18 9 5 16 13 16 19 0 5 -11 2 -25 -7 -28
-19 -34 -9 -7 13 9 8 11 12 5 8 -7 -3 -13 -2 -13 3 0 6 7 12 15 16 8 3 15 0
15 -6 0 -6 3 -9 6 -5 3 3 1 14 -5 24 -6 10 -11 13 -11 6z"/>
<path d="M2974 3047 c1 -12 -2 -28 -7 -35 -7 -9 -6 -11 6 -6 24 9 41 -5 26
-22 -10 -12 -14 -12 -20 -2 -6 9 -11 10 -19 2 -17 -17 23 -24 45 -8 18 13 18
15 -2 36 -11 13 -19 28 -16 35 2 6 0 14 -5 17 -5 3 -8 -5 -8 -17z"/>
<path d="M2924 3045 c-4 -8 -10 -12 -15 -9 -5 3 -9 1 -9 -4 0 -12 48 -13 56
-1 3 5 -3 6 -12 2 -13 -5 -16 -3 -11 10 3 9 4 17 1 17 -2 0 -7 -7 -10 -15z"/>
<path d="M3123 3044 c3 -3 2 -17 -3 -30 -9 -22 -8 -23 15 -14 22 8 25 7 25
-13 0 -18 -2 -19 -10 -7 -7 12 -9 10 -7 -8 2 -27 2 -27 27 -2 11 11 15 20 8
20 -6 0 -8 3 -5 7 8 8 -32 53 -46 53 -6 0 -8 -3 -4 -6z m22 -24 c3 -5 1 -10
-4 -10 -6 0 -11 5 -11 10 0 6 2 10 4 10 3 0 8 -4 11 -10z"/>
<path d="M2856 2963 c-6 -14 -5 -15 5 -6 7 7 10 15 7 18 -3 3 -9 -2 -12 -12z"/>
<path d="M2885 2962 c-3 -8 -3 -17 0 -20 3 -3 5 1 5 9 0 11 2 12 9 1 6 -11 9
-9 13 5 6 23 -18 27 -27 5z"/>
<path d="M3183 2958 c-20 -26 -22 -35 -8 -35 8 0 15 4 15 8 0 5 7 6 15 3 20
-8 19 -22 -2 -26 -15 -3 -14 -5 5 -10 12 -3 20 -2 17 2 -3 5 -1 11 5 15 5 3
10 1 10 -4 0 -6 7 -11 17 -11 14 0 14 2 -2 20 -10 11 -20 18 -23 15 -8 -8 -43
16 -37 26 9 13 -1 11 -12 -3z"/>
<path d="M3005 2941 c-3 -5 0 -13 6 -17 7 -4 9 -3 5 4 -3 5 0 13 6 15 9 4 10
6 1 6 -6 1 -14 -3 -18 -8z"/>
<path d="M2972 2931 c-11 -6 -10 -10 4 -15 15 -6 15 -9 -6 -31 -17 -18 -27
-22 -36 -14 -9 7 -18 7 -31 0 -16 -9 -15 -10 7 -8 18 1 25 -3 24 -14 -2 -19
20 -19 38 -1 7 7 17 8 27 2 13 -6 17 -4 17 10 0 15 -4 16 -24 9 -16 -6 -23 -6
-20 2 2 6 6 9 8 7 3 -2 13 4 22 12 15 14 14 16 -4 22 -10 4 -16 12 -13 18 7
12 4 12 -13 1z"/>
<path d="M2793 2915 c1 -5 -3 -9 -9 -8 -7 1 -15 -9 -18 -22 -4 -14 -13 -25
-21 -25 -8 0 -15 -8 -15 -17 0 -9 -8 -26 -17 -37 -18 -21 -18 -21 5 -2 12 11
22 25 22 33 0 7 5 13 11 13 5 0 7 -4 4 -10 -3 -5 -1 -10 5 -10 7 0 10 6 7 13
-7 19 12 47 28 41 7 -3 11 -13 8 -22 -4 -15 -3 -15 6 -2 8 11 7 18 -6 28 -9 6
-14 13 -10 13 26 5 34 4 46 -5 12 -9 12 -8 1 11 -14 21 -50 28 -47 8z"/>
<path d="M3049 2918 c-1 -7 -3 -26 -5 -43 -2 -20 0 -25 5 -16 5 8 7 21 4 29
-5 12 -2 12 18 3 23 -12 23 -12 4 4 -17 14 -18 17 -5 25 13 8 12 10 -2 10 -10
0 -19 -6 -19 -12z"/>
<path d="M2890 2910 c-8 -5 -12 -12 -9 -15 4 -3 12 1 19 10 14 17 11 19 -10 5z"/>
<path d="M3130 2916 c0 -2 7 -7 16 -10 8 -3 12 -2 9 4 -6 10 -25 14 -25 6z"/>
<path d="M3278 2883 c7 -3 16 -2 19 1 4 3 -2 6 -13 5 -11 0 -14 -3 -6 -6z"/>
<path d="M3147 2865 c-4 -8 -18 -15 -34 -15 -22 0 -25 2 -13 10 13 8 13 10 -2
10 -19 0 -50 -38 -42 -52 8 -13 24 1 18 17 -4 10 0 12 16 8 16 -4 18 -8 8 -14
-9 -6 -9 -9 -1 -9 6 0 15 5 18 10 4 6 10 8 15 5 9 -6 35 33 27 41 -2 3 -7 -2
-10 -11z"/>
<path d="M3178 2873 c6 -2 10 -9 7 -14 -4 -5 1 -6 10 -2 13 5 14 7 3 14 -7 5
-17 8 -23 8 -5 0 -4 -3 3 -6z"/>
<path d="M3227 2851 c2 -8 -2 -11 -12 -8 -8 4 -17 2 -20 -4 -4 -5 -10 -7 -15
-4 -5 3 -12 0 -16 -6 -4 -8 -3 -9 4 -5 7 4 12 1 12 -6 0 -10 2 -10 9 1 8 13
35 20 84 22 15 0 16 3 7 15 -14 16 -35 20 -25 4 3 -5 0 -10 -9 -10 -8 0 -16 3
-19 8 -2 4 -2 1 0 -7z"/>
<path d="M2856 2852 c-3 -5 1 -9 9 -9 8 0 12 4 9 9 -3 4 -7 8 -9 8 -2 0 -6 -4
-9 -8z"/>
<path d="M2903 2835 c0 -8 4 -12 9 -9 5 3 6 10 3 15 -9 13 -12 11 -12 -6z"/>
<path d="M3300 2835 c0 -9 7 -18 15 -21 8 -4 13 -10 10 -14 -3 -5 -1 -11 5
-15 5 -3 10 1 10 10 0 9 5 13 11 9 7 -4 10 -1 7 7 -3 8 -10 15 -16 15 -32 4
-35 6 -17 14 19 8 19 9 -2 9 -14 1 -23 -5 -23 -14z"/>
<path d="M2788 2827 c7 -8 8 -18 4 -22 -4 -5 -1 -5 6 -1 17 10 15 23 -4 30
-13 5 -14 4 -6 -7z"/>
<path d="M3258 2823 c-16 -2 -28 -8 -28 -13 0 -11 40 -4 54 10 5 5 8 9 6 9 -3
-1 -17 -4 -32 -6z"/>
<path d="M2743 2805 c-3 -9 -3 -18 -1 -21 3 -3 8 4 11 16 6 23 -1 27 -10 5z"/>
<path d="M2940 2806 c6 -8 18 -12 27 -9 12 5 12 7 1 14 -7 5 -19 9 -27 9 -11
0 -11 -3 -1 -14z"/>
<path d="M3130 2811 c0 -6 4 -12 8 -15 5 -3 9 1 9 9 0 8 -4 15 -9 15 -4 0 -8
-4 -8 -9z"/>
<path d="M2877 2803 c-4 -3 -7 -11 -7 -17 0 -6 5 -5 12 2 6 6 9 14 7 17 -3 3
-9 2 -12 -2z"/>
<path d="M3297 2803 c-4 -3 -7 -11 -7 -17 0 -6 5 -5 12 2 6 6 9 14 7 17 -3 3
-9 2 -12 -2z"/>
<path d="M2667 2793 c-10 -9 -9 -23 1 -23 5 0 9 7 9 15 0 17 -1 18 -10 8z"/>
<path d="M2805 2789 c-4 -6 -5 -12 -2 -15 2 -3 7 2 10 11 7 17 1 20 -8 4z"/>
<path d="M3045 2791 c-3 -5 -2 -12 3 -15 5 -3 9 1 9 9 0 17 -3 19 -12 6z"/>
<path d="M2920 2781 c0 -6 4 -13 10 -16 6 -3 7 1 4 9 -7 18 -14 21 -14 7z"/>
<path d="M3076 2778 c3 -4 12 -8 20 -8 8 0 14 4 14 8 0 4 -9 8 -19 8 -11 0
-17 -4 -15 -8z"/>
<path d="M3250 2781 c0 -5 5 -13 10 -16 6 -3 10 -2 10 4 0 5 -4 13 -10 16 -5
3 -10 2 -10 -4z"/>
<path d="M3353 2776 c2 -23 24 -33 24 -12 0 8 -4 13 -8 10 -4 -2 -10 2 -13 8
-3 7 -5 4 -3 -6z"/>
<path d="M2983 2753 c1 -14 8 -28 15 -29 7 -1 8 0 2 3 -15 7 -12 23 5 23 17 0
20 -30 5 -48 -6 -8 -5 -8 4 0 19 17 25 64 9 61 -7 -2 -13 2 -13 7 0 6 -6 10
-14 10 -10 0 -14 -9 -13 -27z"/>
<path d="M2733 2738 c-3 -6 -1 -8 5 -4 5 3 12 2 14 -4 2 -5 9 -6 16 -1 10 6 9
10 -7 14 -12 3 -24 0 -28 -5z"/>
<path d="M2925 2721 c-3 -12 -12 -22 -18 -22 -7 -1 -18 -2 -26 -3 -8 0 -16 -8
-18 -16 -4 -13 -3 -13 5 -1 9 13 13 13 28 0 11 -9 15 -9 10 -1 -4 6 -3 12 3
12 12 0 35 39 28 47 -3 2 -8 -5 -12 -16z"/>
<path d="M3055 2729 c-4 -6 -5 -12 -2 -15 2 -3 7 2 10 11 7 17 1 20 -8 4z"/>
<path d="M3093 2725 c0 -8 4 -12 9 -9 4 3 8 9 8 15 0 5 -4 9 -8 9 -5 0 -9 -7
-9 -15z"/>
<path d="M3325 2721 c-3 -12 -10 -19 -14 -17 -4 3 -8 -1 -8 -9 0 -8 3 -15 7
-15 9 0 32 51 26 57 -2 2 -7 -5 -11 -16z"/>
<path d="M3166 2722 c-3 -5 1 -9 9 -9 8 0 12 4 9 9 -3 4 -7 8 -9 8 -2 0 -6 -4
-9 -8z"/>
<path d="M3440 2726 c0 -2 7 -7 16 -10 8 -3 12 -2 9 4 -6 10 -25 14 -25 6z"/>
<path d="M2621 2702 c-7 -14 -6 -19 4 -19 8 0 12 4 9 9 -3 4 0 8 5 8 6 0 11 5
11 10 0 17 -19 11 -29 -8z"/>
<path d="M3245 2710 c-3 -6 1 -7 9 -4 18 7 21 14 7 14 -6 0 -13 -4 -16 -10z"/>
<path d="M2822 2703 c-6 -2 -10 -9 -6 -14 8 -14 21 -11 21 6 0 8 -1 15 -1 14
-1 0 -7 -3 -14 -6z"/>
<path d="M2966 2675 c-3 -8 -1 -15 4 -15 6 0 10 7 10 15 0 8 -2 15 -4 15 -2 0
-6 -7 -10 -15z"/>
<path d="M3059 2673 c-13 -16 -12 -17 4 -4 16 13 21 21 13 21 -2 0 -10 -8 -17
-17z"/>
<path d="M3471 2677 c-7 -9 -3 -20 11 -37 l20 -25 -16 28 c-19 30 -12 35 16
10 10 -9 20 -14 23 -11 3 2 -6 14 -19 26 -19 16 -27 18 -35 9z"/>
<path d="M2795 2671 c6 -11 4 -13 -8 -8 -22 8 -21 5 2 -15 16 -13 20 -14 25
-3 2 7 -3 19 -12 27 -13 11 -14 11 -7 -1z"/>
<path d="M3431 2664 c0 -11 3 -14 6 -6 3 7 2 16 -1 19 -3 4 -6 -2 -5 -13z"/>
<path d="M3120 2659 c0 -5 -4 -7 -10 -4 -6 4 -7 -1 -3 -11 4 -11 8 -13 11 -6
2 7 8 10 13 7 5 -4 6 1 3 9 -7 18 -14 21 -14 5z"/>
<path d="M2915 2641 c-6 -11 13 -26 22 -17 4 3 1 6 -6 6 -7 0 -9 5 -6 10 3 6
4 10 1 10 -3 0 -7 -4 -11 -9z"/>
<path d="M2973 2635 c0 -8 2 -13 5 -10 3 2 18 -5 34 -16 24 -18 31 -19 45 -7
15 11 16 11 10 -5 -4 -10 -3 -16 2 -12 6 3 9 14 8 24 -1 18 -3 18 -26 2 -23
-15 -25 -15 -19 1 5 13 3 15 -9 11 -13 -5 -15 -2 -10 12 6 15 5 16 -8 5 -10
-8 -15 -9 -15 -1 0 6 -4 11 -8 11 -5 0 -9 -7 -9 -15z"/>
<path d="M3405 2640 c-3 -5 -1 -10 4 -10 6 0 11 5 11 10 0 6 -2 10 -4 10 -3 0
-8 -4 -11 -10z"/>
<path d="M2751 2623 c-7 -7 -17 -10 -23 -7 -7 4 -8 2 -4 -4 5 -9 15 -8 37 3
16 9 29 17 29 19 0 8 -28 1 -39 -11z"/>
<path d="M2886 2622 c-3 -5 1 -15 8 -21 11 -10 14 -9 12 3 -3 21 -13 29 -20
18z"/>
<path d="M2796 2605 c4 -8 10 -12 15 -9 11 6 2 24 -11 24 -5 0 -7 -7 -4 -15z"/>
<path d="M3111 2603 c8 -9 13 -26 12 -37 -1 -16 0 -16 3 -3 3 10 10 14 17 10
8 -5 8 -2 0 9 -7 8 -9 19 -5 23 4 5 1 5 -5 1 -7 -4 -13 -2 -13 3 0 6 -5 11
-11 11 -8 0 -7 -6 2 -17z"/>
<path d="M2855 2599 c-10 -15 3 -25 16 -12 7 7 7 13 1 17 -6 3 -14 1 -17 -5z"/>
<path d="M3555 2590 c3 -17 0 -19 -21 -16 -14 3 -22 1 -19 -5 4 -5 13 -9 21
-9 10 0 12 -5 8 -12 -5 -9 -2 -9 9 1 18 14 24 61 8 61 -6 0 -8 -9 -6 -20z"/>
<path d="M2965 2575 c0 -15 5 -21 14 -17 9 3 12 1 7 -6 -3 -6 -2 -13 3 -16 11
-7 9 13 -2 32 -5 6 -6 16 -3 20 3 5 0 9 -7 9 -7 0 -12 -10 -12 -22z"/>
<path d="M2550 2586 c0 -1 9 -9 20 -19 15 -13 20 -14 20 -3 0 7 -9 16 -20 19
-11 3 -20 4 -20 3z"/>
<path d="M2925 2580 c-3 -5 -1 -10 4 -10 6 0 11 5 11 10 0 6 -2 10 -4 10 -3 0
-8 -4 -11 -10z"/>
<path d="M3183 2575 c-3 -9 -3 -18 -1 -21 3 -3 8 4 11 16 6 23 -1 27 -10 5z"/>
<path d="M2881 2564 c0 -11 3 -14 6 -6 3 7 2 16 -1 19 -3 4 -6 -2 -5 -13z"/>
<path d="M2926 2552 c-3 -5 1 -9 9 -9 8 0 12 4 9 9 -3 4 -7 8 -9 8 -2 0 -6 -4
-9 -8z"/>
<path d="M3060 2553 c5 -2 10 -9 10 -14 0 -6 -4 -8 -9 -4 -5 3 -12 1 -15 -4
-4 -5 2 -8 11 -7 21 3 24 28 5 32 -7 1 -8 0 -2 -3z"/>
<path d="M3226 2547 c3 -10 9 -15 12 -12 3 3 0 11 -7 18 -10 9 -11 8 -5 -6z"/>
<path d="M3493 2519 c-1 -10 2 -19 8 -19 11 0 12 27 1 34 -4 2 -9 -4 -9 -15z"/>
<path d="M2725 2520 c-3 -5 -1 -10 6 -10 8 0 8 -5 -2 -17 -11 -15 -11 -16 1
-5 19 16 31 15 24 -2 -3 -7 2 -16 12 -20 13 -5 14 -3 6 6 -6 7 -11 17 -11 21
-1 16 -30 37 -36 27z"/>
<path d="M2858 2523 c6 -2 9 -10 6 -15 -4 -7 -2 -8 4 -4 18 11 14 26 -5 25
-11 0 -13 -3 -5 -6z"/>
<path d="M2796 2505 c4 -8 8 -15 10 -15 2 0 4 7 4 15 0 8 -4 15 -10 15 -5 0
-7 -7 -4 -15z"/>
<path d="M3055 2510 c-18 -8 -17 -9 8 -9 15 -1 27 4 27 9 0 12 -8 12 -35 0z"/>
<path d="M3240 2499 c-6 -11 -10 -25 -8 -30 2 -5 8 4 15 21 13 34 9 40 -7 9z"/>
<path d="M3456 2512 c-3 -5 1 -9 9 -9 8 0 12 4 9 9 -3 4 -7 8 -9 8 -2 0 -6 -4
-9 -8z"/>
<path d="M2990 2502 c0 -4 9 -13 20 -19 16 -11 18 -10 14 1 -6 15 -34 30 -34
18z"/>
<path d="M3058 2483 c7 -3 16 -2 19 1 4 3 -2 6 -13 5 -11 0 -14 -3 -6 -6z"/>
<path d="M3205 2481 c-3 -5 -2 -12 3 -15 5 -3 9 1 9 9 0 17 -3 19 -12 6z"/>
<path d="M3178 2453 c6 -2 9 -10 6 -15 -4 -7 -2 -8 5 -4 13 9 5 26 -12 25 -9
0 -8 -2 1 -6z"/>
<path d="M2813 2433 c0 -9 4 -10 14 -2 7 6 13 12 13 14 0 1 -6 2 -13 2 -8 0
-14 -6 -14 -14z"/>
<path d="M2926 2428 c3 -4 11 -5 19 -1 21 7 19 12 -4 10 -11 0 -18 -5 -15 -9z"/>
<path d="M2870 2410 c0 -5 5 -10 11 -10 5 0 7 5 4 10 -3 6 -8 10 -11 10 -2 0
-4 -4 -4 -10z"/>
<path d="M3200 2410 c0 -5 5 -10 11 -10 5 0 7 5 4 10 -3 6 -8 10 -11 10 -2 0
-4 -4 -4 -10z"/>
<path d="M3350 2409 c0 -5 -5 -7 -12 -3 -6 4 -3 -4 8 -18 10 -14 21 -24 23
-22 3 2 0 9 -6 15 -6 6 -9 18 -6 25 3 8 2 14 -1 14 -3 0 -6 -5 -6 -11z"/>
<path d="M3118 2403 c7 -3 16 -2 19 1 4 3 -2 6 -13 5 -11 0 -14 -3 -6 -6z"/>
<path d="M2810 2390 c-9 -6 -10 -10 -3 -10 6 0 15 5 18 10 8 12 4 12 -15 0z"/>
<path d="M2953 2384 c0 -7 6 -10 14 -7 7 3 13 8 13 12 0 4 -6 8 -13 8 -8 0
-14 -6 -14 -13z"/>
<path d="M2895 2380 c-16 -7 -17 -9 -3 -9 9 -1 20 4 23 9 7 11 7 11 -20 0z"/>
<path d="M2850 2370 c0 -5 5 -10 11 -10 5 0 7 5 4 10 -3 6 -8 10 -11 10 -2 0
-4 -4 -4 -10z"/>
<path d="M2477 2363 c-4 -3 -7 -11 -7 -17 0 -6 5 -5 12 2 6 6 9 14 7 17 -3 3
-9 2 -12 -2z"/>
<path d="M3131 2323 c6 -7 17 -13 23 -12 7 0 6 2 -2 6 -6 2 -10 8 -8 12 3 4
-1 8 -9 8 -11 0 -12 -4 -4 -14z"/>
<path d="M3055 2320 c-3 -5 1 -10 10 -10 9 0 13 5 10 10 -3 6 -8 10 -10 10 -2
0 -7 -4 -10 -10z"/>
<path d="M2915 2300 c3 -5 11 -10 16 -10 6 0 7 5 4 10 -3 6 -11 10 -16 10 -6
0 -7 -4 -4 -10z"/>
<path d="M2890 2286 c0 -2 7 -7 16 -10 8 -3 12 -2 9 4 -6 10 -25 14 -25 6z"/>
<path d="M2106 2252 l-19 -27 26 24 c28 26 32 31 20 31 -5 0 -17 -13 -27 -28z"/>
<path d="M3145 2261 c-3 -5 -1 -12 5 -16 5 -3 10 1 10 9 0 18 -6 21 -15 7z"/>
<path d="M2348 2223 c7 -3 16 -2 19 1 4 3 -2 6 -13 5 -11 0 -14 -3 -6 -6z"/>
<path d="M2199 2213 c-1 -5 -1 -12 0 -17 1 -5 -4 -13 -11 -18 -10 -7 -10 -9 2
-5 8 2 15 10 15 18 0 8 5 17 10 21 6 5 5 8 -2 8 -7 0 -14 -3 -14 -7z"/>
<path d="M2307 2213 c-4 -3 -7 -11 -7 -17 0 -6 5 -5 12 2 6 6 9 14 7 17 -3 3
-9 2 -12 -2z"/>
<path d="M2610 2209 c0 -5 5 -7 10 -4 6 3 10 8 10 11 0 2 -4 4 -10 4 -5 0 -10
-5 -10 -11z"/>
<path d="M2286 2168 c3 -5 10 -6 15 -3 13 9 11 12 -6 12 -8 0 -12 -4 -9 -9z"/>
<path d="M2670 2165 c-10 -12 -10 -15 2 -15 8 0 15 7 15 15 0 8 -1 15 -2 15
-2 0 -8 -7 -15 -15z"/>
<path d="M2136 2155 c-9 -26 -7 -32 5 -12 6 10 9 21 6 23 -2 3 -7 -2 -11 -11z"/>
<path d="M2105 2150 c-3 -5 -1 -10 4 -10 6 0 11 5 11 10 0 6 -2 10 -4 10 -3 0
-8 -4 -11 -10z"/>
<path d="M2170 2156 c0 -2 7 -9 15 -16 13 -11 14 -10 9 4 -5 14 -24 23 -24 12z"/>
<path d="M2378 2153 c7 -3 16 -2 19 1 4 3 -2 6 -13 5 -11 0 -14 -3 -6 -6z"/>
<path d="M2413 2128 c-2 -16 0 -19 6 -9 6 9 11 10 15 2 4 -6 11 -9 15 -6 5 2
9 -7 9 -22 0 -24 -2 -25 -13 -9 -10 12 -15 14 -20 5 -5 -6 -1 -15 8 -20 9 -6
13 -18 10 -31 -4 -22 -3 -22 11 2 12 20 16 22 17 8 3 -33 4 -36 13 -45 6 -5 6
-2 1 6 -6 11 -4 13 7 8 9 -3 23 2 32 12 16 18 12 31 -8 31 -6 0 -5 -4 2 -9 11
-6 11 -10 0 -19 -19 -15 -36 -2 -42 32 -4 22 -2 26 6 18 7 -7 17 -12 23 -12 5
0 -10 18 -34 40 -25 22 -47 40 -51 40 -3 0 -7 -10 -7 -22z"/>
<path d="M3094 2120 c0 -13 4 -16 10 -10 7 7 7 13 0 20 -6 6 -10 3 -10 -10z"/>
<path d="M1976 2117 c-16 -12 -16 -13 2 -13 10 0 19 6 19 13 0 7 -1 13 -2 13
-1 0 -9 -6 -19 -13z"/>
<path d="M2316 2122 c-3 -5 1 -9 9 -9 8 0 12 4 9 9 -3 4 -7 8 -9 8 -2 0 -6 -4
-9 -8z"/>
<path d="M2358 2107 c-3 -14 0 -24 7 -24 7 0 10 10 7 24 -2 13 -6 23 -7 23 -1
0 -5 -10 -7 -23z"/>
<path d="M2165 2100 c-3 -6 1 -7 9 -4 18 7 21 14 7 14 -6 0 -13 -4 -16 -10z"/>
<path d="M2397 2089 c3 -10 -1 -27 -8 -37 -13 -15 -12 -16 2 -4 22 17 30 49
14 56 -8 3 -11 -2 -8 -15z"/>
<path d="M2195 2089 c-4 -6 -5 -12 -2 -15 2 -3 7 2 10 11 7 17 1 20 -8 4z"/>
<path d="M2109 2073 c-13 -16 -12 -17 4 -4 9 7 17 15 17 17 0 8 -8 3 -21 -13z"/>
<path d="M2311 2068 c-1 -20 14 -24 25 -6 4 6 3 8 -4 4 -5 -3 -13 0 -15 6 -3
8 -6 6 -6 -4z"/>
<path d="M2805 2050 c-4 -6 -11 -8 -16 -5 -5 4 -9 1 -9 -4 0 -16 16 -13 30 4
7 8 10 15 7 15 -3 0 -9 -5 -12 -10z"/>
<path d="M1900 2036 c-8 -8 -34 -32 -57 -54 -40 -36 -57 -62 -31 -46 7 4 8 3
4 -5 -4 -6 -11 -9 -16 -6 -4 3 -16 -7 -25 -21 -9 -15 -13 -24 -7 -20 5 3 12
-6 15 -20 l4 -25 -19 21 c-11 12 -23 19 -26 15 -4 -3 -1 -9 5 -13 8 -5 7 -13
-4 -27 -13 -16 -15 -17 -10 -2 4 9 2 17 -3 17 -6 0 -10 -4 -10 -10 0 -5 -8
-10 -17 -10 -10 0 -25 -5 -33 -10 -11 -7 -5 -8 19 -3 28 5 33 3 29 -8 -3 -8 0
-23 8 -33 7 -11 11 -23 7 -29 -3 -6 -1 -7 5 -3 6 4 9 14 6 24 -5 15 -4 15 6 2
9 -13 10 -12 8 6 -2 11 8 31 24 47 22 22 27 24 32 10 4 -9 2 -21 -4 -27 -7 -7
-10 -6 -10 3 0 7 -5 9 -10 6 -6 -4 -8 -11 -5 -16 3 -5 -1 -6 -10 -3 -11 5 -14
2 -9 -10 3 -9 1 -23 -6 -31 -6 -8 -9 -18 -6 -24 3 -5 -1 -8 -11 -7 -9 2 -19
11 -23 20 -3 10 -10 17 -15 16 -5 -1 -11 4 -14 11 -2 7 1 9 8 5 7 -4 9 -2 5 7
-3 9 -13 13 -25 10 -15 -4 -17 -8 -8 -13 9 -6 8 -12 -4 -25 -10 -9 -17 -21
-17 -26 0 -6 7 -4 15 5 9 8 22 13 30 10 16 -7 28 -34 15 -34 -6 0 -10 5 -10
10 0 19 -17 10 -28 -15 -6 -14 -7 -25 -3 -25 5 0 11 6 14 13 2 6 2 2 1 -10 -5
-27 12 -39 32 -22 14 11 15 10 12 -11 -2 -21 2 -26 26 -28 17 -2 26 0 22 7 -4
5 -2 13 4 16 6 4 10 3 9 -2 -3 -20 2 -27 11 -13 7 11 10 11 10 2 0 -7 5 -10
11 -7 6 4 23 8 37 9 15 1 38 6 52 11 22 7 23 6 11 -9 -7 -9 -25 -16 -39 -16
-14 0 -22 -3 -18 -7 4 -5 12 -8 17 -8 5 0 8 -4 7 -10 -2 -5 -7 -8 -13 -7 -5 2
-6 0 -2 -4 4 -4 -3 -14 -15 -21 -13 -7 -17 -12 -10 -13 15 0 16 -40 1 -40 -20
0 14 -32 49 -47 18 -7 30 -18 27 -23 -9 -15 5 -12 21 4 8 8 10 17 5 20 -5 4
-12 0 -14 -6 -3 -8 -6 -5 -6 5 -1 13 -6 17 -19 13 -13 -5 -18 0 -20 19 -1 14
3 25 9 25 8 0 8 5 -1 15 -7 8 -16 13 -20 10 -5 -3 -11 -1 -15 5 -3 5 -1 11 4
11 6 1 17 2 24 3 6 1 15 -2 18 -7 3 -5 9 0 11 11 4 14 2 19 -7 15 -8 -2 -13 2
-11 10 3 20 26 48 35 42 4 -2 8 2 8 10 0 8 -4 12 -9 9 -4 -3 -8 -1 -8 5 0 5 5
12 10 14 6 3 5 4 -2 3 -26 -5 -36 17 -19 43 15 24 15 24 -12 17 -20 -5 -27 -3
-27 8 0 8 5 18 11 22 6 3 9 15 6 25 -3 11 -2 19 1 19 4 0 8 12 8 26 l2 26 -25
-23 c-15 -15 -27 -20 -31 -13 -4 6 -14 14 -22 17 -8 3 -1 5 15 4 17 -1 30 3
30 8 0 6 -6 9 -15 7 -12 -2 -12 -1 -2 6 7 5 24 7 36 5 13 -3 27 1 31 7 5 9 1
10 -16 6 -13 -3 -18 -3 -11 0 6 3 12 10 12 15 0 6 -6 7 -12 3 -8 -4 -9 -3 -5
2 5 5 14 9 20 9 13 0 17 7 17 31 0 8 -5 12 -10 9 -6 -4 -7 -12 -4 -18 4 -7 4
-9 -1 -5 -4 4 -14 3 -21 -3 -8 -7 -14 -6 -20 2 -4 8 -3 9 4 5 7 -4 12 -1 12 7
0 7 11 19 24 26 25 14 28 30 8 53 -6 8 -9 18 -5 21 3 4 4 7 2 7 -3 0 -11 -6
-19 -14z m25 -26 c3 -5 -2 -10 -12 -10 -15 0 -16 -2 -3 -10 12 -8 10 -10 -10
-10 -15 0 -32 -6 -40 -12 -8 -7 -2 2 14 20 31 34 41 38 51 22z m-72 -85 c-3
-10 1 -15 13 -15 25 0 10 -12 -20 -15 -17 -2 -23 1 -22 13 2 9 8 18 14 20 7 2
9 9 6 14 -4 7 -2 8 4 4 6 -4 9 -13 5 -21z m-33 -59 c-7 -7 -13 -7 -20 0 -6 6
-3 10 10 10 13 0 16 -4 10 -10z m67 -53 c-1 -10 -6 -24 -11 -31 -4 -7 -9 -25
-11 -41 -4 -29 6 -34 33 -18 15 10 16 -5 0 -21 -9 -9 -8 -15 8 -26 18 -14 18
-15 -6 -24 -26 -10 -57 -5 -66 9 -8 13 20 11 34 -3 8 -8 12 -8 12 -1 0 6 -7
14 -16 17 -8 3 -12 10 -9 16 3 5 2 10 -3 10 -6 0 -8 9 -5 20 3 11 0 20 -6 20
-6 0 -11 5 -11 11 0 5 5 7 10 4 6 -3 10 -1 10 4 0 6 -6 11 -12 12 -10 0 -10 2
-1 6 9 3 10 10 3 23 -8 15 -6 17 9 13 10 -3 22 0 25 6 10 16 16 13 13 -6z
m-87 -38 c-7 -9 -15 -13 -19 -10 -3 3 1 10 9 15 21 14 24 12 10 -5z m14 -30
c-4 -10 0 -15 12 -16 11 0 14 -3 7 -6 -10 -3 -10 -10 -2 -25 9 -16 8 -19 -3
-16 -7 3 -13 9 -13 14 0 5 -4 15 -9 22 -7 12 -2 42 8 42 3 0 3 -7 0 -15z m-45
-49 c10 -12 8 -14 -11 -9 -21 4 -22 3 -6 -10 10 -8 15 -17 11 -20 -10 -10 -25
-8 -18 2 3 5 1 13 -5 16 -8 5 -7 11 1 21 14 17 14 17 28 0z m121 -166 c0 -5
-5 -10 -11 -10 -5 0 -7 5 -4 10 3 6 8 10 11 10 2 0 4 -4 4 -10z m-6 -36 c5
-14 4 -15 -9 -4 -17 14 -19 20 -6 20 5 0 12 -7 15 -16z"/>
<path d="M1860 1789 c0 -5 5 -7 10 -4 6 3 10 8 10 11 0 2 -4 4 -10 4 -5 0 -10
-5 -10 -11z"/>
<path d="M2075 2039 c-4 -6 -5 -12 -2 -15 2 -3 7 2 10 11 7 17 1 20 -8 4z"/>
<path d="M2145 2040 c-3 -5 -1 -10 4 -10 6 0 11 5 11 10 0 6 -2 10 -4 10 -3 0
-8 -4 -11 -10z"/>
<path d="M2304 2036 c11 -9 27 -16 35 -15 14 0 14 1 1 6 -8 3 -24 10 -35 15
-20 9 -20 9 -1 -6z"/>
<path d="M636 2022 c-3 -5 1 -9 9 -9 8 0 12 4 9 9 -3 4 -7 8 -9 8 -2 0 -6 -4
-9 -8z"/>
<path d="M540 2011 c0 -6 5 -13 12 -17 7 -5 8 -3 3 6 -6 10 -4 12 9 7 10 -4
15 -3 11 3 -8 13 -35 13 -35 1z"/>
<path d="M2230 2013 c0 -6 -3 -20 -6 -30 -4 -14 -4 -15 4 -4 8 11 12 10 20 -5
9 -16 13 -17 24 -6 11 11 11 13 -1 10 -8 -2 -20 8 -28 22 -7 14 -13 20 -13 13z"/>
<path d="M2076 1995 c-3 -9 -4 -20 -1 -25 5 -8 -23 -25 -37 -22 -4 1 -3 -9 2
-22 7 -18 5 -28 -7 -38 -14 -11 -15 -10 -9 9 8 25 -10 41 -27 24 -9 -9 -8 -11
3 -8 8 2 12 2 8 0 -5 -3 -8 -12 -8 -21 -1 -13 -4 -11 -14 7 -12 21 -14 21 -20
6 -9 -23 -5 -26 39 -29 20 -1 40 -8 45 -16 6 -9 10 -10 10 -3 0 6 -5 15 -10
18 -8 5 -7 12 2 22 7 9 12 24 10 35 -2 10 3 18 11 18 17 0 28 32 17 50 -5 8
-9 7 -14 -5z"/>
<path d="M2165 2000 c-3 -5 -1 -10 4 -10 6 0 11 5 11 10 0 6 -2 10 -4 10 -3 0
-8 -4 -11 -10z"/>
<path d="M526 1975 c-9 -26 -7 -32 5 -12 6 10 9 21 6 23 -2 3 -7 -2 -11 -11z"/>
<path d="M611 1968 c-7 -11 -10 -23 -7 -26 3 -3 6 0 6 7 0 7 5 9 10 6 6 -3 10
-1 10 5 0 7 7 10 15 6 21 -8 19 1 -3 13 -14 7 -21 5 -31 -11z"/>
<path d="M2488 1983 c7 -3 16 -2 19 1 4 3 -2 6 -13 5 -11 0 -14 -3 -6 -6z"/>
<path d="M705 1970 c9 -15 -15 -52 -31 -46 -8 3 -14 1 -14 -4 0 -16 19 -21 31
-7 7 7 23 12 35 9 12 -2 25 1 28 7 5 7 1 8 -10 4 -13 -5 -16 -2 -12 9 4 9 1
21 -5 27 -14 14 -30 15 -22 1z"/>
<path d="M2118 1973 c7 -3 16 -2 19 1 4 3 -2 6 -13 5 -11 0 -14 -3 -6 -6z"/>
<path d="M670 1960 c0 -5 5 -10 11 -10 5 0 7 5 4 10 -3 6 -8 10 -11 10 -2 0
-4 -4 -4 -10z"/>
<path d="M1967 1952 c1 -8 3 -16 3 -18 0 -2 5 -4 11 -4 5 0 8 4 5 9 -4 5 -3
11 1 14 5 2 3 2 -4 1 -6 -2 -14 0 -16 4 -2 4 -2 1 0 -6z"/>
<path d="M2396 1959 c3 -5 9 -7 14 -4 4 3 11 0 13 -5 3 -6 4 -5 3 1 -1 7 -10
13 -19 15 -9 1 -15 -2 -11 -7z"/>
<path d="M2490 1961 c0 -6 4 -13 10 -16 6 -3 7 1 4 9 -7 18 -14 21 -14 7z"/>
<path d="M2520 1957 c0 -10 8 -17 18 -17 9 0 13 4 7 8 -5 4 -13 11 -17 16 -5
5 -8 2 -8 -7z"/>
<path d="M2598 1941 c9 -16 19 -29 22 -29 14 3 59 -15 55 -21 -2 -4 2 -8 10
-8 13 0 12 4 -2 19 -9 10 -22 18 -30 18 -7 0 -13 7 -13 15 0 8 -9 15 -20 15
-11 0 -20 5 -20 10 0 6 -4 10 -10 10 -5 0 -2 -13 8 -29z"/>
<path d="M561 1946 c-9 -10 -7 -17 6 -27 17 -13 17 -13 3 5 -14 18 -13 19 2
13 12 -4 15 -2 11 9 -6 17 -8 17 -22 0z"/>
<path d="M2207 1946 c-4 -10 -1 -13 8 -9 8 3 12 9 9 14 -7 12 -11 11 -17 -5z"/>
<path d="M480 1946 c0 -2 9 -6 20 -9 11 -3 18 -1 14 4 -5 9 -34 13 -34 5z"/>
<path d="M2336 1938 c3 -4 11 -5 19 -1 21 7 19 12 -4 10 -11 0 -18 -5 -15 -9z"/>
<path d="M2470 1930 c0 -5 5 -10 10 -10 6 0 10 5 10 10 0 6 -4 10 -10 10 -5 0
-10 -4 -10 -10z"/>
<path d="M617 1910 c-3 -11 -1 -20 4 -20 5 0 9 9 9 20 0 11 -2 20 -4 20 -2 0
-6 -9 -9 -20z"/>
<path d="M2306 1918 c3 -5 10 -6 15 -3 13 9 11 12 -6 12 -8 0 -12 -4 -9 -9z"/>
<path d="M2520 1919 c0 -5 -4 -7 -10 -4 -14 9 -12 -1 3 -13 10 -8 13 -6 14 9
1 10 0 19 -3 19 -2 0 -4 -5 -4 -11z"/>
<path d="M408 1908 c-10 -25 -9 -32 6 -34 10 -1 13 5 11 18 -6 27 -11 32 -17
16z"/>
<path d="M490 1905 c0 -8 4 -15 8 -15 5 0 9 7 9 15 0 8 -4 15 -9 15 -4 0 -8
-7 -8 -15z"/>
<path d="M779 1913 c-1 -5 -1 -11 0 -15 2 -12 -13 -9 -29 5 -12 10 -12 9 -1
-5 12 -16 41 -25 41 -14 0 2 3 11 6 20 3 9 1 16 -5 16 -6 0 -12 -3 -12 -7z"/>
<path d="M1942 1912 c-7 -5 -10 -16 -6 -25 3 -10 1 -17 -5 -17 -6 0 -11 -9
-11 -21 0 -14 5 -19 15 -16 11 5 10 -1 -4 -27 -12 -21 -16 -38 -10 -47 7 -11
9 -8 9 9 0 12 5 22 11 22 5 0 7 5 4 10 -3 6 -1 10 5 10 6 0 8 5 5 10 -3 6 0
10 7 10 7 0 22 8 33 16 20 16 20 16 -2 10 -25 -8 -47 22 -37 48 7 18 5 19 -14
8z m23 -61 c3 -6 -4 -9 -15 -8 -11 1 -20 5 -20 9 0 11 28 10 35 -1z"/>
<path d="M2128 1913 c-16 -4 -34 -33 -20 -33 10 1 46 29 41 33 -2 2 -11 2 -21
0z"/>
<path d="M2560 1895 c-12 -13 -26 -23 -29 -21 -3 3 -7 -9 -7 -24 -1 -17 4 -31
13 -34 8 -3 11 -2 8 3 -3 5 3 12 14 16 23 7 59 45 43 45 -7 0 -12 -4 -12 -10
0 -5 -7 -10 -15 -10 -8 0 -15 -4 -15 -10 0 -5 -4 -10 -10 -10 -20 0 -10 24 22
52 17 15 27 28 22 28 -6 0 -21 -11 -34 -25z"/>
<path d="M707 1890 c-3 -13 0 -20 8 -20 21 0 27 16 11 29 -11 9 -15 7 -19 -9z"/>
<path d="M2075 1901 c-3 -5 -2 -12 3 -15 5 -3 9 1 9 9 0 17 -3 19 -12 6z"/>
<path d="M2160 1891 c0 -5 5 -13 10 -16 6 -3 10 -2 10 4 0 5 -4 13 -10 16 -5
3 -10 2 -10 -4z"/>
<path d="M2357 1893 c-4 -3 -7 -13 -7 -22 1 -13 3 -13 11 2 11 19 8 33 -4 20z"/>
<path d="M2615 1873 c-3 -14 -4 -28 -1 -31 3 -3 -2 -11 -12 -19 -15 -13 -15
-13 5 -4 30 15 36 14 28 -6 -5 -14 -4 -15 6 -6 18 18 20 43 3 36 -10 -4 -13 1
-10 18 2 14 9 23 17 21 8 -2 10 0 6 4 -17 17 -36 11 -42 -13z"/>
<path d="M554 1875 c3 -8 1 -15 -5 -15 -6 0 -9 -6 -6 -14 3 -8 3 -17 -1 -20
-3 -4 -6 -15 -7 -26 -1 -14 2 -17 10 -10 7 5 15 7 19 3 4 -4 4 1 0 11 -4 11
-2 21 7 27 11 7 10 9 -6 9 -15 1 -13 4 10 14 17 7 34 11 39 8 5 -3 6 0 2 6 -5
9 -13 9 -27 2 -18 -10 -23 -6 -20 13 0 4 -4 7 -10 7 -6 0 -9 -7 -5 -15z"/>
<path d="M485 1857 c1 -12 5 -21 9 -20 20 5 22 10 6 25 -16 17 -17 17 -15 -5z"/>
<path d="M760 1868 c0 -3 6 -11 14 -17 10 -9 17 -7 27 6 12 16 12 17 -2 6 -12
-10 -18 -10 -27 -1 -7 7 -12 9 -12 6z"/>
<path d="M2204 1858 c-3 -5 6 -7 20 -4 14 2 27 -1 30 -7 2 -7 5 -5 5 4 1 18
-45 24 -55 7z"/>
<path d="M2385 1849 c2 -29 12 -32 17 -6 3 14 0 24 -7 24 -6 0 -11 -8 -10 -18z"/>
<path d="M2705 1861 c6 -11 4 -13 -11 -8 -18 7 -17 6 1 -10 26 -22 39 -54 22
-50 -7 1 -12 -6 -12 -15 0 -9 -3 -20 -7 -23 -4 -4 -4 -13 -1 -21 3 -8 1 -14
-5 -14 -5 0 -12 9 -15 20 -3 11 -1 18 3 15 5 -3 11 -1 15 5 3 5 -1 10 -9 10
-9 0 -16 8 -16 18 0 15 2 15 11 2 7 -10 9 -11 7 -2 -6 22 -23 14 -26 -12 -2
-18 -8 -23 -20 -20 -9 3 -6 -2 8 -10 14 -8 20 -15 13 -16 -7 0 -10 -6 -7 -14
3 -8 1 -17 -5 -21 -7 -4 -8 0 -4 11 5 14 3 15 -15 5 -15 -8 -22 -8 -22 -1 0 5
6 10 14 10 8 0 17 4 20 8 3 5 -11 8 -31 7 -20 0 -38 -6 -41 -13 -2 -8 2 -10
13 -6 13 5 16 2 13 -12 -2 -10 -10 -18 -17 -16 -7 1 -9 -2 -6 -9 5 -8 10 -8
18 0 6 6 18 11 27 11 9 0 5 -6 -10 -14 -22 -12 -27 -11 -42 6 -10 11 -18 15
-18 9 0 -7 -6 -9 -12 -6 -7 4 0 -5 15 -19 15 -14 24 -26 20 -26 -4 0 -1 -5 7
-10 8 -5 10 -10 4 -10 -6 0 -17 7 -24 15 -9 11 -16 12 -26 4 -17 -14 -39 -2
-26 14 5 7 8 20 7 29 -2 9 3 19 11 22 8 3 14 12 14 20 0 19 -30 30 -44 16 -7
-7 -7 -11 -1 -10 20 4 35 0 35 -9 0 -6 -9 -8 -20 -6 -16 3 -19 1 -11 -13 6
-11 4 -20 -7 -30 -10 -7 -11 -11 -4 -7 6 3 12 1 12 -4 0 -6 -5 -11 -11 -11 -6
0 -9 -6 -6 -12 2 -7 9 -13 15 -13 5 0 14 -3 17 -7 4 -4 17 -3 28 3 14 8 18 8
12 -1 -5 -8 0 -11 16 -8 16 2 23 9 21 20 -2 12 2 16 12 12 8 -3 17 0 21 5 3 6
11 9 16 6 5 -4 13 3 17 15 4 12 18 26 31 33 13 7 23 15 22 19 0 5 16 23 37 42
l37 35 -25 23 c-44 41 -65 55 -55 39z"/>
<path d="M409 1843 c-13 -16 -12 -17 4 -4 9 7 17 15 17 17 0 8 -8 3 -21 -13z"/>
<path d="M830 1856 c0 -2 8 -10 18 -17 15 -13 16 -12 3 4 -13 16 -21 21 -21
13z"/>
<path d="M458 1844 c-5 -4 -8 -19 -8 -33 0 -18 3 -22 11 -14 6 6 9 21 7 33 -1
12 -6 18 -10 14z"/>
<path d="M730 1839 c0 -5 5 -7 10 -4 6 3 10 8 10 11 0 2 -4 4 -10 4 -5 0 -10
-5 -10 -11z"/>
<path d="M2487 1823 c3 -7 9 -10 14 -7 14 8 11 21 -5 21 -8 0 -12 -6 -9 -14z"/>
<path d="M2020 1809 c0 -11 4 -18 10 -14 5 3 7 12 3 20 -7 21 -13 19 -13 -6z"/>
<path d="M2121 1814 c0 -11 3 -14 6 -6 3 7 2 16 -1 19 -3 4 -6 -2 -5 -13z"/>
<path d="M2186 1814 c-8 -20 -8 -24 2 -24 4 0 8 9 9 20 2 24 -3 26 -11 4z"/>
<path d="M2680 1826 c0 -2 8 -10 18 -17 15 -13 16 -12 3 4 -13 16 -21 21 -21
13z"/>
<path d="M389 1798 l-24 -20 26 15 c26 15 39 13 39 -5 0 -5 -4 -7 -9 -3 -5 3
-13 0 -17 -6 -4 -8 -3 -9 4 -5 8 5 12 -1 13 -16 0 -22 1 -22 9 -3 22 52 0 76
-41 43z"/>
<path d="M495 1810 c-3 -6 1 -7 9 -4 18 7 21 14 7 14 -6 0 -13 -4 -16 -10z"/>
<path d="M315 1800 c-16 -7 -17 -9 -3 -9 9 -1 20 4 23 9 7 11 7 11 -20 0z"/>
<path d="M741 1796 c-1 -13 -6 -17 -21 -13 -11 3 -18 2 -15 -3 7 -11 44 -20
49 -12 2 4 0 16 -5 27 -7 18 -8 19 -8 1z"/>
<path d="M1972 1784 c-7 -8 -10 -19 -6 -26 5 -8 2 -9 -9 -5 -10 3 -17 2 -17
-3 0 -6 6 -10 14 -10 8 0 23 -12 33 -26 l19 -26 -2 29 c-2 40 -3 43 -11 42
-20 -3 -24 2 -13 16 16 20 9 28 -8 9z m28 -54 c0 -5 -2 -10 -4 -10 -3 0 -8 5
-11 10 -3 6 -1 10 4 10 6 0 11 -4 11 -10z"/>
<path d="M2330 1785 c-9 -11 -9 -15 -1 -15 7 0 9 -5 5 -12 -5 -8 -1 -8 12 2
10 8 20 15 22 16 1 1 -4 6 -11 13 -11 9 -17 8 -27 -4z"/>
<path d="M2450 1789 c0 -5 5 -7 10 -4 6 3 10 8 10 11 0 2 -4 4 -10 4 -5 0 -10
-5 -10 -11z"/>
<path d="M2622 1784 c10 -10 20 -16 22 -13 3 3 -5 11 -17 18 -21 13 -21 12 -5
-5z"/>
<path d="M479 1776 c6 -7 8 -15 5 -19 -3 -3 3 -3 15 0 20 5 30 22 14 24 -5 0
-16 2 -26 4 -14 3 -16 0 -8 -9z"/>
<path d="M2086 1777 c3 -10 9 -15 12 -12 3 3 0 11 -7 18 -10 9 -11 8 -5 -6z"/>
<path d="M2146 1778 c3 -5 10 -6 15 -3 13 9 11 12 -6 12 -8 0 -12 -4 -9 -9z"/>
<path d="M2410 1781 c0 -6 4 -13 10 -16 6 -3 7 1 4 9 -7 18 -14 21 -14 7z"/>
<path d="M273 1766 c3 -8 -1 -20 -9 -26 -20 -17 -18 -25 8 -27 13 -1 24 -7 26
-13 7 -20 20 -10 15 13 -3 16 -2 18 5 9 7 -11 10 -10 14 5 4 13 0 19 -13 19
-10 0 -17 -3 -17 -6 2 -18 -4 -23 -11 -11 -6 9 -6 22 0 33 8 14 6 18 -7 18
-10 0 -14 -5 -11 -14z"/>
<path d="M320 1770 c-9 -6 -10 -10 -3 -10 6 0 15 5 18 10 8 12 4 12 -15 0z"/>
<path d="M450 1771 c0 -6 4 -13 10 -16 6 -3 7 1 4 9 -7 18 -14 21 -14 7z"/>
<path d="M670 1770 c-9 -6 -10 -10 -3 -10 6 0 15 5 18 10 8 12 4 12 -15 0z"/>
<path d="M926 1765 c10 -8 24 -14 29 -14 6 0 1 6 -9 14 -11 8 -24 15 -30 15
-5 0 -1 -7 10 -15z"/>
<path d="M2576 1765 c4 -8 10 -12 15 -9 14 8 10 24 -6 24 -9 0 -12 -6 -9 -15z"/>
<path d="M370 1750 c-12 -7 -12 -11 -2 -20 6 -5 10 -7 7 -4 -3 4 0 13 6 21 13
15 10 16 -11 3z"/>
<path d="M2220 1753 c8 -4 21 -13 28 -22 11 -14 11 -13 2 7 -6 12 -18 22 -28
21 -14 0 -14 -2 -2 -6z"/>
<path d="M525 1730 c-4 -6 -10 -8 -15 -5 -5 3 -12 0 -16 -6 -4 -8 -3 -9 4 -5
7 4 12 2 12 -5 0 -7 3 -9 7 -6 3 4 13 1 21 -6 13 -10 14 -9 4 9 -6 12 -8 24
-5 28 3 3 4 6 0 6 -3 0 -9 -5 -12 -10z"/>
<path d="M2143 1723 c0 -7 4 -10 8 -7 4 2 13 -4 19 -13 9 -15 10 -14 5 7 -6
24 -5 24 9 6 16 -20 23 -11 8 10 -10 14 -49 12 -49 -3z"/>
<path d="M887 1723 c-10 -10 -8 -23 4 -23 5 0 8 4 5 9 -4 5 0 12 6 14 7 3 8 6
2 6 -6 1 -14 -2 -17 -6z"/>
<path d="M924 1719 c-3 -6 -3 -13 0 -16 3 -4 6 -1 6 5 0 6 7 9 15 6 8 -4 15
-4 15 -1 0 11 -30 16 -36 6z"/>
<path d="M1941 1716 c-7 -8 -8 -17 -3 -20 6 -3 12 3 15 14 6 24 4 25 -12 6z"/>
<path d="M224 1712 c4 -7 1 -12 -8 -12 -10 0 -13 -6 -10 -15 4 -8 -1 -26 -10
-40 -10 -15 -12 -26 -6 -30 6 -3 10 -1 10 5 0 6 6 8 13 4 6 -4 9 -4 5 1 -4 4
0 14 9 20 14 10 15 16 5 27 -8 10 -8 18 -1 25 8 8 7 13 -2 18 -8 5 -10 4 -5
-3z"/>
<path d="M418 1713 c6 -2 18 -2 25 0 6 3 1 5 -13 5 -14 0 -19 -2 -12 -5z"/>
<path d="M350 1699 c0 -5 -6 -7 -12 -4 -7 4 -4 -1 6 -9 11 -9 17 -17 13 -17
-4 -1 -11 -2 -16 -3 -10 -1 -51 -46 -51 -55 0 -3 12 7 25 22 14 15 25 22 25
15 0 -7 6 -4 12 7 11 19 11 19 19 0 6 -16 8 -17 8 -3 1 9 -3 20 -9 23 -5 3
-10 11 -10 17 0 6 6 6 15 -2 13 -11 14 -10 9 4 -7 18 -34 22 -34 5z"/>
<path d="M660 1695 c-9 -10 -9 -15 -1 -15 6 0 11 5 11 11 0 5 5 7 12 3 7 -4 8
-3 4 4 -9 15 -11 15 -26 -3z"/>
<path d="M560 1696 c0 -2 8 -10 18 -17 15 -13 16 -12 3 4 -13 16 -21 21 -21
13z"/>
<path d="M946 1688 c3 -5 9 -6 14 -3 4 3 10 0 12 -7 3 -8 6 -7 10 3 4 11 -1
15 -17 15 -13 0 -21 -4 -19 -8z"/>
<path d="M1006 1675 c-3 -8 -1 -15 4 -15 6 0 10 7 10 15 0 8 -2 15 -4 15 -2 0
-6 -7 -10 -15z"/>
<path d="M256 1666 c3 -9 18 -16 32 -16 25 0 26 10 0 14 -7 1 -19 5 -25 9 -9
6 -11 3 -7 -7z"/>
<path d="M395 1671 c-6 -11 13 -26 22 -17 4 3 1 6 -6 6 -7 0 -9 5 -6 10 3 6 4
10 1 10 -3 0 -7 -4 -11 -9z"/>
<path d="M520 1665 l-25 -15 24 4 c14 1 27 8 29 14 5 15 3 15 -28 -3z"/>
<path d="M2307 1663 c3 -7 6 -13 8 -13 2 0 5 6 8 13 3 8 -1 14 -8 14 -7 0 -11
-6 -8 -14z"/>
<path d="M860 1658 c0 -23 17 -31 24 -12 4 9 4 19 1 22 -3 3 -5 -1 -5 -9 0
-11 -2 -11 -10 1 -8 13 -10 13 -10 -2z"/>
<path d="M1996 1661 c-4 -5 3 -7 14 -4 23 6 26 13 6 13 -8 0 -17 -4 -20 -9z"/>
<path d="M2043 1655 c0 -8 4 -15 9 -15 4 0 8 4 8 9 0 6 -4 12 -8 15 -5 3 -9
-1 -9 -9z"/>
<path d="M457 1649 c7 -7 15 -10 18 -7 3 3 -2 9 -12 12 -14 6 -15 5 -6 -5z"/>
<path d="M757 1653 c-12 -12 -7 -22 8 -17 8 4 15 10 15 15 0 11 -14 12 -23 2z"/>
<path d="M1966 1643 c-6 -14 -5 -15 5 -6 7 7 10 15 7 18 -3 3 -9 -2 -12 -12z"/>
<path d="M2086 1652 c-3 -5 1 -9 9 -9 8 0 12 4 9 9 -3 4 -7 8 -9 8 -2 0 -6 -4
-9 -8z"/>
<path d="M2291 1644 c0 -11 3 -14 6 -6 3 7 2 16 -1 19 -3 4 -6 -2 -5 -13z"/>
<path d="M901 1634 c0 -11 3 -14 6 -6 3 7 2 16 -1 19 -3 4 -6 -2 -5 -13z"/>
<path d="M241 1627 c-8 -10 -7 -14 4 -14 8 0 12 4 9 8 -2 4 2 10 8 12 8 4 9 6
2 6 -6 1 -17 -5 -23 -12z"/>
<path d="M401 1630 c-8 -4 -27 -7 -42 -5 -16 2 -33 -2 -39 -11 -7 -8 -23 -14
-36 -14 -27 0 -32 -15 -8 -24 8 -3 13 -2 10 2 -3 5 0 9 7 9 7 0 13 -16 13 -36
1 -20 -1 -30 -3 -22 -4 10 -9 8 -18 -10 -9 -16 -10 -31 -4 -47 7 -19 6 -29 -6
-42 -20 -23 -7 -28 57 -24 33 2 48 -1 52 -11 3 -8 1 -17 -4 -20 -6 -4 -10 1
-10 9 0 23 -15 19 -17 -4 -1 -11 2 -18 8 -15 5 4 9 -2 9 -12 1 -14 4 -13 14 7
9 16 11 31 5 41 -4 9 -5 19 -1 23 3 4 0 12 -8 17 -12 9 -12 10 3 5 9 -3 17 -1
17 5 0 6 5 7 10 4 6 -3 10 1 10 10 0 12 -4 14 -18 6 -13 -7 -23 -6 -31 2 -10
9 -12 9 -9 -3 2 -10 -3 -14 -16 -12 -10 2 -15 -1 -12 -6 3 -6 -2 -9 -11 -8
-10 2 -20 11 -21 21 -3 12 0 15 10 10 7 -3 5 0 -4 8 -19 15 -25 32 -8 22 6 -3
10 -1 10 4 0 6 8 11 18 12 10 0 12 3 4 6 -6 2 -10 9 -6 14 3 5 0 9 -5 9 -6 0
-11 5 -11 11 0 5 5 7 12 3 6 -4 8 -3 4 4 -3 5 0 13 6 15 7 3 4 6 -7 7 -20 1
-20 1 -1 15 20 15 41 11 31 -6 -4 -5 -2 -9 3 -9 6 0 13 -7 16 -16 4 -12 1 -14
-14 -9 -23 7 -28 -13 -5 -21 8 -4 12 -10 9 -15 -3 -5 -1 -9 4 -9 13 0 21 46
11 62 -9 14 7 38 26 38 7 0 10 -9 8 -24 -3 -13 0 -26 5 -30 6 -4 8 2 5 14 -3
11 0 27 7 35 7 9 10 18 6 22 -3 3 -6 0 -6 -8 0 -10 -2 -11 -8 -2 -5 7 -13 9
-21 3z m-44 -206 c-3 -3 -12 -4 -19 -1 -8 3 -5 6 6 6 11 1 17 -2 13 -5z"/>
<path d="M923 1622 c2 -12 9 -28 17 -35 10 -10 11 -9 4 3 -5 8 -9 21 -10 28
-2 8 -5 17 -8 20 -4 3 -5 -4 -3 -16z"/>
<path d="M2236 1625 c-9 -26 -7 -32 5 -12 6 10 9 21 6 23 -2 3 -7 -2 -11 -11z"/>
<path d="M2171 1612 c-8 -14 -6 -18 10 -19 10 -1 19 4 19 12 0 22 -18 27 -29
7z"/>
<path d="M2375 1619 c-4 -6 -5 -12 -2 -15 2 -3 7 2 10 11 7 17 1 20 -8 4z"/>
<path d="M1090 1612 c0 -4 10 -13 23 -21 22 -14 22 -14 3 8 -20 22 -26 25 -26
13z"/>
<path d="M1800 1604 c0 -16 9 -18 28 -5 10 6 9 10 -7 14 -14 3 -21 0 -21 -9z"/>
<path d="M1937 1614 c7 -3 9 -13 6 -22 -4 -14 -3 -14 5 -2 12 16 7 30 -11 29
-9 0 -9 -2 0 -5z"/>
<path d="M2046 1607 c3 -10 9 -15 12 -12 3 3 0 11 -7 18 -10 9 -11 8 -5 -6z"/>
<path d="M441 1594 c0 -11 3 -14 6 -6 3 7 2 16 -1 19 -3 4 -6 -2 -5 -13z"/>
<path d="M980 1601 c0 -10 29 -36 34 -30 1 2 -6 12 -16 22 -10 9 -18 13 -18 8z"/>
<path d="M1073 1588 c1 -16 5 -28 10 -28 4 0 5 -5 2 -10 -4 -6 -10 -8 -14 -6
-4 3 -8 -1 -8 -7 0 -7 11 -14 23 -15 21 -2 22 1 14 22 -5 13 -6 27 -3 30 4 3
1 6 -5 6 -6 0 -13 8 -15 18 -3 9 -4 5 -4 -10z"/>
<path d="M1967 1597 c-3 -9 1 -18 9 -21 16 -6 18 2 5 22 -7 11 -9 11 -14 -1z"/>
<path d="M2465 1601 c-7 -12 12 -24 25 -16 7 4 9 -2 4 -19 -5 -20 -2 -26 11
-26 9 0 13 -5 10 -11 -5 -7 -14 -5 -29 5 -13 8 -28 11 -35 6 -9 -5 -4 -10 16
-14 27 -7 27 -8 9 -22 -11 -8 -15 -14 -10 -14 6 0 28 15 50 34 34 30 37 35 20
42 -11 4 -22 2 -28 -7 -8 -12 -9 -11 -5 1 2 8 18 16 36 18 27 3 30 6 20 18
-13 16 -34 19 -24 4 3 -5 2 -10 -4 -10 -5 0 -11 6 -14 13 -4 10 -7 10 -18 0
-16 -15 -33 -17 -24 -3 3 6 4 10 1 10 -3 0 -7 -4 -11 -9z"/>
<path d="M635 1589 c7 -11 35 -12 35 -1 0 4 -9 8 -20 9 -11 1 -18 -2 -15 -8z"/>
<path d="M2300 1596 c0 -2 7 -9 15 -16 13 -11 14 -10 9 4 -5 14 -24 23 -24 12z"/>
<path d="M170 1580 c0 -5 5 -10 11 -10 5 0 7 5 4 10 -3 6 -8 10 -11 10 -2 0
-4 -4 -4 -10z"/>
<path d="M596 1582 c-3 -5 1 -9 9 -9 8 0 15 4 15 9 0 4 -4 8 -9 8 -6 0 -12 -4
-15 -8z"/>
<path d="M838 1583 c6 -2 10 -9 7 -14 -4 -5 1 -6 10 -2 13 5 14 7 3 14 -7 5
-17 8 -23 8 -5 0 -4 -3 3 -6z"/>
<path d="M1825 1580 c-3 -5 -1 -10 4 -10 6 0 11 5 11 10 0 6 -2 10 -4 10 -3 0
-8 -4 -11 -10z"/>
<path d="M970 1564 c0 -8 5 -12 10 -9 6 4 8 11 5 16 -9 14 -15 11 -15 -7z"/>
<path d="M1510 1569 c0 -5 5 -7 10 -4 6 3 10 8 10 11 0 2 -4 4 -10 4 -5 0 -10
-5 -10 -11z"/>
<path d="M730 1563 c0 -17 16 -29 39 -30 13 -1 22 -1 20 1 -33 22 -59 35 -59
29z"/>
<path d="M190 1554 c0 -4 8 -13 18 -21 9 -8 11 -12 4 -8 -9 5 -11 -1 -8 -21 6
-33 25 -47 43 -32 15 12 17 34 3 43 -5 3 -8 0 -7 -7 2 -7 2 -10 0 -5 -3 4 -10
4 -16 0 -7 -4 -4 5 6 21 18 27 18 27 0 25 -10 -2 -24 0 -30 4 -7 5 -13 5 -13
1z"/>
<path d="M467 1547 c-3 -8 3 -14 16 -15 12 0 17 2 12 6 -6 4 -13 11 -16 15 -4
4 -9 2 -12 -6z"/>
<path d="M855 1550 c-3 -6 1 -7 9 -4 18 7 21 14 7 14 -6 0 -13 -4 -16 -10z"/>
<path d="M1994 1529 c5 -29 5 -30 -12 -18 -15 13 -16 12 -3 -3 15 -20 35 -14
27 8 -3 8 -1 14 4 14 5 0 7 7 4 15 -11 28 -27 16 -20 -16z"/>
<path d="M2085 1550 c-4 -6 -10 -8 -15 -5 -4 3 -11 -2 -14 -10 -4 -13 -2 -13
14 -5 18 10 36 30 26 30 -3 0 -8 -5 -11 -10z"/>
<path d="M403 1529 c-1 -13 5 -19 18 -19 10 0 19 4 19 10 0 5 -7 6 -17 3 -10
-4 -14 -2 -9 5 3 6 3 13 -2 16 -4 2 -9 -4 -9 -15z"/>
<path d="M2415 1540 c3 -5 8 -10 11 -10 2 0 4 5 4 10 0 6 -5 10 -11 10 -5 0
-7 -4 -4 -10z"/>
<path d="M865 1530 c-3 -5 -1 -10 4 -10 6 0 11 5 11 10 0 6 -2 10 -4 10 -3 0
-8 -4 -11 -10z"/>
<path d="M1022 1531 c-11 -7 -11 -9 0 -14 9 -3 15 1 15 9 0 8 -1 14 -1 14 -1
0 -7 -4 -14 -9z"/>
<path d="M2300 1531 c0 -6 4 -13 10 -16 6 -3 7 1 4 9 -7 18 -14 21 -14 7z"/>
<path d="M688 1513 c-8 -29 6 -38 23 -16 8 10 9 14 2 10 -7 -4 -13 0 -15 10
-3 15 -5 14 -10 -4z"/>
<path d="M1535 1519 c-4 -6 -5 -12 -2 -15 2 -3 7 2 10 11 7 17 1 20 -8 4z"/>
<path d="M1566 1516 c3 -9 11 -16 16 -16 13 0 5 23 -10 28 -7 2 -10 -2 -6 -12z"/>
<path d="M1944 1516 c1 -8 5 -18 8 -22 4 -3 5 1 4 10 -1 8 -5 18 -8 22 -4 3
-5 -1 -4 -10z"/>
<path d="M2352 1515 c3 -11 9 -29 14 -40 7 -18 6 -18 -9 -7 -9 8 -22 12 -29 9
-7 -3 -4 -6 7 -6 16 -1 17 -3 6 -10 -12 -8 -13 -12 -1 -26 11 -13 11 -18 0
-28 -10 -9 -11 -9 -6 0 5 9 2 11 -8 7 -9 -3 -16 -2 -16 4 0 5 -8 13 -17 16
-13 5 -11 0 7 -18 31 -34 67 -31 107 11 l32 33 -26 28 c-24 25 -25 25 -19 5 6
-18 4 -22 -8 -17 -8 3 -13 11 -10 18 3 7 -3 19 -12 27 -16 12 -17 12 -12 -6z
m61 -55 c-3 -11 -9 -18 -13 -15 -5 3 -11 -1 -13 -7 -3 -7 -6 -3 -6 10 -1 13 3
21 8 17 5 -3 12 -1 16 5 10 16 14 12 8 -10z m-44 -33 c-1 -17 -2 -18 -6 -4 -2
9 -9 17 -14 17 -6 0 -7 5 -4 10 10 16 25 1 24 -23z"/>
<path d="M2066 1512 c-3 -5 1 -9 9 -9 8 0 12 4 9 9 -3 4 -7 8 -9 8 -2 0 -6 -4
-9 -8z"/>
<path d="M326 1502 c-2 -4 -1 -14 4 -22 7 -11 9 -9 7 8 -1 24 -3 26 -11 14z"/>
<path d="M1056 1497 c3 -10 9 -15 12 -12 3 3 0 11 -7 18 -10 9 -11 8 -5 -6z"/>
<path d="M390 1490 c0 -5 5 -10 10 -10 6 0 10 5 10 10 0 6 -4 10 -10 10 -5 0
-10 -4 -10 -10z"/>
<path d="M506 1484 c-8 -22 -4 -25 11 -9 7 8 9 16 4 19 -5 3 -12 -1 -15 -10z"/>
<path d="M437 1483 c-12 -12 -7 -22 8 -17 8 4 15 10 15 15 0 11 -14 12 -23 2z"/>
<path d="M475 1479 c-4 -6 -5 -12 -2 -15 2 -3 7 2 10 11 7 17 1 20 -8 4z"/>
<path d="M764 1478 c-4 -5 -3 -12 0 -15 3 -4 6 -1 6 6 0 7 4 10 9 6 5 -3 12
-2 15 3 3 5 -2 9 -10 9 -8 0 -17 -4 -20 -9z"/>
<path d="M915 1479 c-11 -16 -1 -19 13 -3 7 8 8 14 3 14 -5 0 -13 -5 -16 -11z"/>
<path d="M2037 1479 c7 -7 15 -10 18 -7 3 3 -2 9 -12 12 -14 6 -15 5 -6 -5z"/>
<path d="M2138 1483 c7 -3 16 -2 19 1 4 3 -2 6 -13 5 -11 0 -14 -3 -6 -6z"/>
<path d="M535 1469 c-4 -6 -5 -12 -2 -15 2 -3 7 2 10 11 7 17 1 20 -8 4z"/>
<path d="M2173 1465 c0 -8 4 -12 9 -9 5 3 6 10 3 15 -9 13 -12 11 -12 -6z"/>
<path d="M250 1450 c0 -13 5 -20 13 -17 6 2 12 10 12 17 0 7 -6 15 -12 18 -8
2 -13 -5 -13 -18z"/>
<path d="M714 1462 c-7 -5 -3 -15 13 -30 12 -12 23 -18 23 -12 0 6 5 8 12 4 7
-5 8 -3 4 5 -5 7 -11 10 -14 7 -8 -9 -33 15 -26 25 6 11 3 11 -12 1z"/>
<path d="M2120 1456 c0 -2 8 -10 18 -17 15 -13 16 -12 3 4 -13 16 -21 21 -21
13z"/>
<path d="M2226 1452 c-3 -5 1 -9 9 -9 8 0 12 4 9 9 -3 4 -7 8 -9 8 -2 0 -6 -4
-9 -8z"/>
<path d="M433 1430 c-12 -10 -23 -17 -25 -15 -2 2 -4 -10 -4 -26 -2 -30 16
-38 45 -20 10 6 6 11 -15 19 -19 7 -23 11 -11 11 10 1 16 5 12 10 -3 6 3 14
12 20 10 5 15 12 12 15 -3 3 -15 -3 -26 -14z"/>
<path d="M607 1439 c7 -7 15 -10 18 -7 3 3 -2 9 -12 12 -14 6 -15 5 -6 -5z"/>
<path d="M1661 1424 c0 -11 3 -14 6 -6 3 7 2 16 -1 19 -3 4 -6 -2 -5 -13z"/>
<path d="M2156 1423 c-6 -14 -5 -15 5 -6 7 7 10 15 7 18 -3 3 -9 -2 -12 -12z"/>
<path d="M1460 1420 c0 -5 5 -10 11 -10 5 0 7 5 4 10 -3 6 -8 10 -11 10 -2 0
-4 -4 -4 -10z"/>
<path d="M1977 1417 c-3 -8 3 -14 16 -15 12 0 17 2 12 6 -6 4 -13 11 -16 15
-4 4 -9 2 -12 -6z"/>
<path d="M2239 1417 c7 -7 14 -8 21 -1 6 6 2 10 -12 11 -16 2 -18 -1 -9 -10z"/>
<path d="M544 1413 c5 -9 0 -13 -16 -13 -21 -1 -22 -1 -5 -11 25 -15 48 5 28
24 -11 10 -13 10 -7 0z"/>
<path d="M680 1410 c0 -5 7 -7 15 -4 8 4 15 8 15 10 0 2 -7 4 -15 4 -8 0 -15
-4 -15 -10z"/>
<path d="M470 1400 c0 -6 9 -20 20 -32 10 -12 17 -26 13 -31 -3 -6 -1 -7 5 -3
9 5 9 12 0 29 -15 29 -38 51 -38 37z"/>
<path d="M896 1398 c3 -5 10 -6 15 -3 13 9 11 12 -6 12 -8 0 -12 -4 -9 -9z"/>
<path d="M1685 1400 c-3 -5 -1 -10 4 -10 6 0 11 5 11 10 0 6 -2 10 -4 10 -3 0
-8 -4 -11 -10z"/>
<path d="M2105 1400 c-3 -5 -2 -10 4 -10 5 0 13 5 16 10 3 6 2 10 -4 10 -5 0
-13 -4 -16 -10z"/>
<path d="M305 1389 c-4 -6 -3 -15 3 -21 6 -6 11 -4 15 6 7 18 -9 31 -18 15z"/>
<path d="M590 1390 c8 -5 22 -9 30 -9 10 0 8 3 -5 9 -27 12 -43 12 -25 0z"/>
<path d="M714 1385 c1 -8 6 -18 11 -22 4 -4 5 -3 2 4 -4 6 -2 13 5 15 8 3 6 6
-4 10 -10 4 -15 2 -14 -7z"/>
<path d="M2030 1396 c0 -2 7 -6 15 -10 8 -3 15 -1 15 4 0 6 -7 10 -15 10 -8 0
-15 -2 -15 -4z"/>
<path d="M668 1368 c5 -19 7 -20 10 -5 2 9 8 14 14 11 7 -4 8 -2 4 4 -13 22
-35 14 -28 -10z"/>
<path d="M976 1378 c3 -4 9 -8 15 -8 5 0 9 4 9 8 0 5 -7 9 -15 9 -8 0 -12 -4
-9 -9z"/>
<path d="M1022 1370 c-7 -12 -8 -21 -2 -25 6 -4 10 -3 9 2 -3 20 2 25 15 14 9
-8 16 -8 20 -2 4 5 2 12 -4 16 -5 3 -10 3 -10 -2 0 -4 -4 -3 -8 4 -6 9 -11 7
-20 -7z"/>
<path d="M1972 1381 c-10 -6 -9 -11 4 -22 13 -11 18 -11 21 -1 3 6 9 10 14 7
5 -4 6 1 3 9 -7 18 -22 20 -42 7z"/>
<path d="M2075 1380 c-4 -6 -1 -9 7 -8 7 2 12 -3 10 -10 -1 -8 2 -11 8 -7 8 5
7 11 -1 21 -14 17 -16 17 -24 4z"/>
<path d="M2286 1381 c-3 -5 0 -11 7 -14 8 -3 14 1 14 9 0 16 -13 19 -21 5z"/>
<path d="M2343 1372 c-10 -11 -25 -21 -33 -24 -7 -2 -10 -7 -5 -10 6 -3 25 4
43 17 18 13 29 26 23 29 -5 4 -18 -2 -28 -12z"/>
<path d="M2230 1360 c0 -6 7 -13 15 -16 8 -4 12 -10 9 -15 -3 -5 4 -9 15 -9
15 0 21 6 20 23 0 17 -2 19 -7 5 -6 -14 -10 -14 -24 -4 -10 7 -15 16 -11 19 3
4 1 7 -5 7 -7 0 -12 -5 -12 -10z"/>
<path d="M2043 1340 c-1 -16 1 -17 12 -7 7 6 11 15 8 20 -8 13 -19 7 -20 -13z"/>
<path d="M2116 1345 c-5 -15 11 -31 21 -21 4 3 0 6 -8 6 -12 0 -12 2 0 9 8 5
9 11 3 15 -5 3 -12 -1 -16 -9z"/>
<path d="M2160 1349 c0 -4 6 -10 13 -13 10 -5 10 -7 0 -12 -7 -3 -13 -11 -13
-16 0 -6 3 -8 7 -5 3 4 12 -1 20 -11 12 -16 13 -16 6 2 -4 13 -3 17 5 12 15
-9 16 6 1 21 -8 8 -8 13 0 18 7 4 10 1 9 -7 -2 -7 2 -12 9 -11 7 2 10 -3 7
-11 -3 -8 0 -17 5 -21 6 -3 9 -11 6 -16 -4 -5 -1 -9 5 -9 7 0 10 7 6 15 -3 9
0 15 9 15 28 0 -33 52 -65 54 -16 1 -30 -1 -30 -5z"/>
<path d="M396 1344 c6 -3 9 -15 7 -28 -3 -13 0 -27 6 -30 6 -4 8 1 6 12 -3 16
1 18 23 14 16 -3 23 -1 19 4 -5 5 -14 9 -20 9 -7 1 -11 5 -10 11 1 5 -8 10
-20 11 -12 0 -17 -1 -11 -3z"/>
<path d="M530 1339 c0 -5 5 -7 10 -4 6 3 10 8 10 11 0 2 -4 4 -10 4 -5 0 -10
-5 -10 -11z"/>
<path d="M733 1323 c-12 -13 -17 -23 -10 -23 11 0 43 39 35 44 -2 1 -13 -8
-25 -21z"/>
<path d="M791 1334 c0 -11 3 -14 6 -6 3 7 2 16 -1 19 -3 4 -6 -2 -5 -13z"/>
<path d="M966 1338 c3 -5 10 -6 15 -3 13 9 11 12 -6 12 -8 0 -12 -4 -9 -9z"/>
<path d="M700 1330 c-13 -8 -12 -10 3 -10 9 0 17 5 17 10 0 12 -1 12 -20 0z"/>
<path d="M1760 1336 c0 -2 7 -7 16 -10 8 -3 12 -2 9 4 -6 10 -25 14 -25 6z"/>
<path d="M490 1303 c0 -14 -2 -15 -9 -4 -7 10 -13 11 -27 2 -21 -12 -21 -12
22 -15 26 -2 30 1 26 16 -6 23 -12 23 -12 1z"/>
<path d="M685 1301 c-6 -11 13 -26 22 -17 4 3 1 6 -6 6 -7 0 -9 5 -6 10 3 6 4
10 1 10 -3 0 -7 -4 -11 -9z"/>
<path d="M1735 1300 c-3 -6 1 -7 9 -4 18 7 21 14 7 14 -6 0 -13 -4 -16 -10z"/>
<path d="M2066 1296 c7 -19 20 -21 30 -3 4 6 4 9 -1 5 -4 -4 -14 -3 -22 4 -11
8 -12 7 -7 -6z"/>
<path d="M525 1290 c3 -4 14 -10 25 -13 11 -3 18 -2 15 3 -3 4 -14 10 -25 13
-11 3 -18 2 -15 -3z"/>
<path d="M770 1290 c-9 -6 -10 -10 -3 -10 6 0 15 5 18 10 8 12 4 12 -15 0z"/>
<path d="M1371 1284 c0 -11 3 -14 6 -6 3 7 2 16 -1 19 -3 4 -6 -2 -5 -13z"/>
<path d="M619 1271 c9 -9 18 -13 19 -9 6 14 19 9 19 -7 0 -8 -4 -15 -9 -15 -5
0 -3 -6 4 -14 16 -17 32 2 18 19 -6 7 -5 16 3 25 8 9 9 11 0 6 -6 -3 -14 -2
-17 3 -3 4 -16 9 -30 9 -22 0 -22 -2 -7 -17z"/>
<path d="M1582 1266 c0 -11 2 -16 6 -10 4 6 14 13 22 16 11 3 9 6 -6 10 -15 4
-20 0 -22 -16z"/>
<path d="M1805 1273 c4 -10 7 -26 7 -35 0 -10 4 -18 10 -18 6 0 8 10 5 23 -6
21 -5 21 8 3 8 -10 12 -22 10 -27 -3 -4 5 -4 17 -1 19 5 20 7 5 10 -9 2 -15 8
-12 13 4 5 -5 14 -19 20 -14 7 -23 16 -20 20 3 5 0 9 -6 9 -8 0 -9 -7 -5 -17z"/>
<path d="M424 1268 c-4 -5 2 -17 11 -26 10 -10 15 -12 11 -6 -3 7 1 14 9 18 9
3 15 -1 15 -11 0 -18 49 -67 58 -58 4 3 0 10 -8 15 -13 8 -12 11 4 23 24 17
13 37 -16 30 -12 -4 -26 0 -32 8 -13 17 -44 21 -52 7z"/>
<path d="M709 1263 c-13 -17 -13 -17 6 -3 11 8 22 16 24 17 2 2 0 3 -6 3 -6 0
-17 -8 -24 -17z"/>
<path d="M878 1273 c7 -3 16 -2 19 1 4 3 -2 6 -13 5 -11 0 -14 -3 -6 -6z"/>
<path d="M2145 1270 c5 -8 1 -18 -10 -27 -18 -12 -10 -19 18 -14 7 1 11 -16 7
-34 -1 -6 3 -6 10 1 11 11 4 44 -11 44 -4 0 -6 6 -3 14 3 8 0 17 -7 22 -8 5
-10 3 -4 -6z"/>
<path d="M850 1260 c0 -6 7 -10 15 -10 8 0 15 2 15 4 0 2 -7 6 -15 10 -8 3
-15 1 -15 -4z"/>
<path d="M1060 1260 c0 -5 5 -10 11 -10 5 0 7 5 4 10 -3 6 -8 10 -11 10 -2 0
-4 -4 -4 -10z"/>
<path d="M2090 1260 c0 -5 7 -10 16 -10 8 0 12 5 9 10 -3 6 -10 10 -16 10 -5
0 -9 -4 -9 -10z"/>
<path d="M800 1240 c6 -11 12 -20 13 -20 2 0 3 9 3 20 0 11 -6 20 -13 20 -11
0 -11 -5 -3 -20z"/>
<path d="M936 1251 c-3 -4 4 -17 17 -27 22 -19 22 -19 4 2 -9 11 -14 24 -10
27 3 4 4 7 0 7 -3 0 -8 -4 -11 -9z"/>
<path d="M960 1249 c0 -5 5 -7 10 -4 6 3 10 8 10 11 0 2 -4 4 -10 4 -5 0 -10
-5 -10 -11z"/>
<path d="M2222 1253 c-7 -2 -17 -14 -24 -26 -11 -21 -10 -21 8 -7 45 36 51 47
16 33z"/>
<path d="M554 1225 c3 -8 0 -15 -6 -15 -6 0 -9 -2 -6 -5 5 -5 58 17 58 25 0 3
-12 7 -26 8 -20 1 -25 -2 -20 -13z"/>
<path d="M707 1216 c-16 -12 -22 -23 -15 -23 8 0 22 11 31 24 22 29 20 28 -16
-1z"/>
<path d="M980 1230 c0 -5 5 -10 11 -10 5 0 7 5 4 10 -3 6 -8 10 -11 10 -2 0
-4 -4 -4 -10z"/>
<path d="M1646 1215 c4 -8 8 -15 10 -15 2 0 4 7 4 15 0 8 -4 15 -10 15 -5 0
-7 -7 -4 -15z"/>
<path d="M1568 1203 c7 -3 16 -2 19 1 4 3 -2 6 -13 5 -11 0 -14 -3 -6 -6z"/>
<path d="M1512 1175 c0 -16 2 -22 5 -12 2 9 2 23 0 30 -3 6 -5 -1 -5 -18z"/>
<path d="M535 1179 c-4 -6 -4 -13 0 -17 4 -4 10 -1 12 6 3 6 11 12 19 12 17 0
17 -1 3 -37 -8 -22 -8 -25 2 -16 13 13 39 7 39 -9 0 -6 -7 -8 -15 -4 -17 6
-21 -19 -5 -29 6 -3 10 -1 10 4 0 6 10 11 23 11 16 0 18 3 9 9 -11 7 -11 9 2
14 8 3 18 2 21 -3 6 -10 31 -7 42 5 4 4 3 5 -4 1 -6 -3 -14 -2 -17 3 -4 5 -17
8 -31 6 -14 -1 -28 2 -32 8 -4 6 -1 7 7 2 9 -5 11 -4 6 4 -6 9 -11 9 -24 -1
-13 -11 -15 -11 -10 3 11 30 -41 55 -57 28z"/>
<path d="M1700 1186 c0 -2 7 -7 16 -10 8 -3 12 -2 9 4 -6 10 -25 14 -25 6z"/>
<path d="M1895 1182 c2 -3 0 -13 -6 -23 -14 -27 -4 -24 14 4 13 20 13 24 1 24
-8 0 -12 -2 -9 -5z"/>
<path d="M641 1171 c-8 -5 -9 -11 -3 -15 5 -3 12 1 16 9 6 17 6 18 -13 6z"/>
<path d="M1098 1173 c7 -3 16 -2 19 1 4 3 -2 6 -13 5 -11 0 -14 -3 -6 -6z"/>
<path d="M910 1160 c0 -5 5 -10 11 -10 5 0 7 5 4 10 -3 6 -8 10 -11 10 -2 0
-4 -4 -4 -10z"/>
<path d="M1556 1153 c-6 -14 -5 -15 5 -6 7 7 10 15 7 18 -3 3 -9 -2 -12 -12z"/>
<path d="M1920 1160 c0 -5 5 -10 11 -10 6 0 7 -5 2 -12 -4 -7 -8 -22 -9 -33
-2 -14 1 -11 9 8 6 15 14 27 19 27 4 0 5 7 2 15 -7 17 -34 21 -34 5z"/>
<path d="M1186 1127 c3 -10 9 -15 12 -12 3 3 0 11 -7 18 -10 9 -11 8 -5 -6z"/>
<path d="M1262 1124 c10 -10 20 -16 22 -13 3 3 -5 11 -17 18 -21 13 -21 12 -5
-5z"/>
<path d="M1713 1125 c0 -8 4 -12 9 -9 5 3 6 10 3 15 -9 13 -12 11 -12 -6z"/>
<path d="M1824 1121 c4 -5 1 -12 -4 -14 -6 -3 -5 -4 2 -3 15 3 23 26 8 26 -6
0 -9 -4 -6 -9z"/>
<path d="M836 1107 c3 -10 9 -15 12 -12 3 3 0 11 -7 18 -10 9 -11 8 -5 -6z"/>
<path d="M1085 1090 c-3 -5 -1 -10 4 -10 6 0 11 5 11 10 0 6 -2 10 -4 10 -3 0
-8 -4 -11 -10z"/>
<path d="M1393 1085 c0 -8 4 -12 9 -9 5 3 6 10 3 15 -9 13 -12 11 -12 -6z"/>
<path d="M1470 1096 c0 -2 8 -10 18 -17 15 -13 16 -12 3 4 -13 16 -21 21 -21
13z"/>
<path d="M610 1079 c0 -5 4 -8 9 -4 5 3 12 -3 14 -12 4 -16 5 -16 6 1 1 14 7
17 26 14 13 -3 22 -1 19 3 -8 13 -74 11 -74 -2z"/>
<path d="M730 1085 c0 -3 7 -19 15 -35 15 -29 15 -30 -7 -31 -22 -1 -22 -1 2
-8 27 -8 52 4 35 17 -16 11 -36 52 -26 52 5 0 16 -10 26 -22 17 -23 17 -23 2
2 -13 22 -47 41 -47 25z"/>
<path d="M795 1081 c-3 -5 -2 -12 3 -15 5 -3 9 1 9 9 0 17 -3 19 -12 6z"/>
<path d="M986 1078 c3 -5 10 -6 15 -3 13 9 11 12 -6 12 -8 0 -12 -4 -9 -9z"/>
<path d="M1944 1063 c-21 -16 -31 -19 -37 -10 -6 8 -7 6 -3 -5 3 -10 0 -20 -6
-24 -7 -4 -5 -10 6 -16 9 -5 13 -14 9 -21 -4 -7 2 -5 12 3 16 13 18 13 13 0
-3 -8 -16 -15 -30 -15 -18 1 -24 -4 -20 -14 3 -9 1 -12 -6 -7 -7 4 -12 3 -12
-2 0 -6 7 -13 16 -16 19 -7 64 21 64 40 0 8 5 14 10 14 6 0 10 9 10 20 0 11
-5 20 -11 20 -6 0 -9 -7 -5 -15 7 -20 -8 -19 -24 0 -17 21 1 41 27 30 10 -5
25 -7 32 -6 13 2 13 0 0 -16 -13 -17 -13 -17 4 -4 9 8 15 16 13 19 -3 2 5 13
17 24 21 19 21 19 1 9 -12 -6 -25 -7 -29 -3 -5 4 -6 2 -2 -3 3 -6 -3 -11 -14
-11 -27 0 -24 10 9 23 22 8 23 10 6 10 -12 -1 -34 -11 -50 -24z m-34 -113 c0
-5 -5 -10 -11 -10 -5 0 -7 5 -4 10 3 6 8 10 11 10 2 0 4 -4 4 -10z"/>
<path d="M880 1076 c0 -2 8 -10 18 -17 15 -13 16 -12 3 4 -13 16 -21 21 -21
13z"/>
<path d="M653 1055 c0 -7 7 -11 15 -7 10 3 13 1 8 -6 -4 -7 -2 -12 3 -12 17 0
13 18 -7 29 -14 7 -19 6 -19 -4z"/>
<path d="M815 1051 c-6 -11 13 -26 22 -17 4 3 1 6 -6 6 -7 0 -9 5 -6 10 3 6 4
10 1 10 -3 0 -7 -4 -11 -9z"/>
<path d="M1563 1038 c-2 -16 1 -18 10 -9 7 7 8 14 1 21 -6 6 -10 2 -11 -12z"/>
<path d="M1005 1040 c-3 -6 1 -7 9 -4 18 7 21 14 7 14 -6 0 -13 -4 -16 -10z"/>
<path d="M1730 1038 c0 -4 4 -8 9 -8 6 0 12 4 15 8 3 5 -1 9 -9 9 -8 0 -15 -4
-15 -9z"/>
<path d="M943 1027 c-3 -6 -1 -7 5 -3 7 4 12 3 12 -3 0 -5 -6 -12 -12 -15 -7
-2 -3 -4 9 -2 12 1 26 6 30 11 5 4 2 4 -6 0 -10 -6 -13 -4 -9 7 7 16 -19 21
-29 5z"/>
<path d="M1082 1024 c-7 -8 -8 -14 -3 -14 10 0 25 19 20 25 -2 1 -10 -3 -17
-11z"/>
<path d="M691 1021 c-8 -5 -9 -11 -3 -15 5 -3 12 1 16 9 6 17 6 18 -13 6z"/>
<path d="M800 1011 c0 -12 -3 -20 -7 -20 -22 4 -43 -2 -43 -12 0 -5 4 -8 9 -5
5 4 7 -7 5 -22 -3 -17 1 -34 9 -40 11 -9 13 -6 9 17 -3 21 2 35 17 47 23 20
27 39 11 49 -5 3 -10 -3 -10 -14z"/>
<path d="M1145 1010 c-16 -7 -17 -9 -3 -9 9 -1 20 4 23 9 7 11 7 11 -20 0z"/>
<path d="M1315 1011 c-3 -5 -2 -12 3 -15 5 -3 9 1 9 9 0 17 -3 19 -12 6z"/>
<path d="M907 996 c-6 -16 19 -43 30 -32 3 3 1 6 -5 6 -6 0 -9 6 -6 14 3 8 1
17 -4 20 -6 3 -12 -1 -15 -8z"/>
<path d="M1870 1000 c0 -6 7 -10 15 -10 8 0 15 2 15 4 0 2 -7 6 -15 10 -8 3
-15 1 -15 -4z"/>
<path d="M728 975 c2 -15 11 -25 21 -24 10 0 11 2 4 6 -7 2 -13 13 -13 24 0
10 -4 19 -9 19 -4 0 -6 -11 -3 -25z"/>
<path d="M992 991 c-11 -7 -11 -9 1 -14 9 -3 18 1 21 9 6 16 -2 18 -22 5z"/>
<path d="M865 964 c-16 -24 -16 -26 4 -31 12 -3 18 -10 14 -16 -3 -6 -1 -7 6
-3 15 10 4 26 -17 26 -10 0 -13 3 -6 8 10 7 27 42 20 42 -2 0 -11 -12 -21 -26z"/>
<path d="M1480 980 c-9 -6 -10 -10 -3 -10 6 0 15 5 18 10 8 12 4 12 -15 0z"/>
<path d="M1630 986 c0 -2 7 -7 16 -10 8 -3 12 -2 9 4 -6 10 -25 14 -25 6z"/>
<path d="M836 968 c5 -7 2 -9 -9 -5 -9 3 -21 -1 -28 -11 -11 -14 -11 -15 1 -5
11 10 16 9 27 -5 8 -9 12 -12 9 -5 -4 6 -2 14 4 18 13 8 13 25 -1 25 -5 0 -7
-5 -3 -12z"/>
<path d="M967 963 c-11 -10 -8 -20 7 -26 10 -4 12 0 9 14 -6 21 -7 22 -16 12z"/>
<path d="M1103 955 c0 -8 4 -12 9 -9 5 3 6 10 3 15 -9 13 -12 11 -12 -6z"/>
<path d="M1046 924 c-8 -22 -8 -26 5 -22 6 2 10 8 9 13 -1 5 7 12 17 16 16 7
16 8 -3 8 -12 1 -25 -6 -28 -15z"/>
<path d="M1270 936 c0 -2 7 -7 16 -10 8 -3 12 -2 9 4 -6 10 -25 14 -25 6z"/>
<path d="M811 915 c0 -26 25 -59 39 -50 6 3 10 3 9 -2 -6 -24 38 -83 62 -83 7
0 9 -3 6 -7 -11 -10 13 -33 34 -33 11 0 19 -4 19 -8 0 -9 39 -58 87 -110 19
-20 37 -31 44 -26 7 4 9 3 5 -4 -3 -6 -2 -13 4 -17 6 -4 11 6 12 22 0 15 2 33
3 38 2 6 3 16 4 23 1 8 7 6 19 -5 11 -10 17 -21 15 -26 -6 -10 26 -21 35 -13
3 4 0 11 -8 16 -8 6 -10 10 -5 10 6 0 17 -5 25 -11 11 -8 12 -12 2 -16 -6 -2
-9 -9 -6 -15 13 -21 -32 -1 -49 22 l-19 25 7 -24 c5 -16 4 -21 -4 -17 -6 4
-11 3 -11 -3 0 -5 6 -12 13 -14 10 -4 10 -6 0 -6 -18 -1 -16 -31 2 -31 8 0 15
7 15 15 0 8 5 15 10 15 7 0 7 -6 0 -20 -8 -15 -7 -26 6 -45 9 -14 21 -22 27
-18 6 3 7 1 3 -5 -10 -17 3 -35 17 -24 11 7 21 10 74 14 6 1 9 7 6 15 -6 16
-5 15 -37 3 -24 -9 -25 -8 -14 15 6 14 18 25 27 26 11 0 12 2 3 6 -7 3 -20 -1
-29 -9 -12 -9 -15 -9 -9 -1 13 23 -6 42 -34 31 -19 -7 -22 -11 -10 -18 9 -6
20 -4 30 3 13 10 13 10 3 -4 -7 -9 -10 -19 -6 -22 3 -4 1 -7 -5 -7 -7 0 -12 5
-12 11 0 8 -4 8 -13 1 -10 -8 -13 -5 -15 14 -1 17 5 28 23 36 42 19 43 60 2
73 -21 7 -21 7 -3 12 12 3 25 -2 32 -12 8 -10 14 -12 19 -6 3 6 0 14 -9 17 -8
3 -12 12 -9 20 3 8 0 21 -6 28 -7 8 -11 23 -9 33 3 17 -1 19 -38 22 -8 0 -13
4 -11 9 3 4 -9 7 -26 8 l-32 1 30 -13 c17 -7 36 -13 43 -14 6 0 12 -4 12 -10
0 -5 -6 -8 -12 -6 -7 1 -10 1 -6 -1 4 -3 10 -3 12 -1 8 5 35 -35 36 -51 0 -7
-6 -11 -14 -8 -8 3 -22 -3 -31 -13 -10 -11 -22 -17 -27 -14 -5 3 -2 14 7 24
11 12 13 20 6 25 -6 3 -11 3 -11 -2 0 -4 -5 -1 -11 7 -9 12 -10 11 -6 -7 3
-15 0 -23 -9 -23 -9 0 -11 6 -7 17 6 15 5 16 -9 3 -11 -10 -13 -19 -6 -27 11
-14 1 -36 -13 -27 -5 3 -7 9 -4 14 3 4 -1 10 -9 13 -10 4 -13 -2 -12 -24 2
-34 -4 -37 -22 -9 -7 11 -8 19 -3 18 5 -2 9 2 9 7 0 6 -4 9 -10 7 -5 -1 -7 2
-3 8 3 6 10 8 15 5 5 -3 8 3 7 13 -1 14 -7 18 -21 14 -12 -3 -17 -1 -12 6 3 6
2 13 -3 16 -5 3 -7 15 -4 26 3 12 0 20 -6 20 -7 0 -9 -5 -6 -10 4 -6 -3 -9
-17 -6 -13 2 -27 0 -33 -4 -6 -5 -11 1 -11 16 -1 14 4 24 12 24 7 0 11 6 8 14
-3 8 -1 17 5 21 10 5 15 -6 13 -26 -1 -3 6 -6 14 -6 10 0 11 4 4 11 -13 13
-13 29 -1 21 5 -3 12 -1 15 4 5 8 -51 8 -58 0 -1 -2 -10 -15 -19 -29 -12 -17
-17 -20 -17 -8 0 20 -24 30 -39 15 -8 -8 -11 -7 -11 6 0 9 -4 17 -8 17 -5 0
-9 7 -9 15 0 13 2 13 17 0 9 -8 23 -15 31 -15 8 0 21 -6 29 -12 12 -11 12 -10
1 5 -7 9 -21 17 -31 17 -10 0 -20 7 -24 15 -3 9 0 15 10 15 24 0 7 17 -23 23
-16 3 -34 1 -40 -5 -9 -8 -15 -4 -22 13 -9 21 -10 22 -10 4z m63 -23 c3 -5 -1
-9 -9 -9 -8 0 -12 4 -9 9 3 4 7 8 9 8 2 0 6 -4 9 -8z m156 -157 c16 -19 1 -19
-24 0 -16 12 -17 15 -4 15 8 0 21 -7 28 -15z m15 -43 c-6 -7 -45 19 -45 29 0
5 11 2 24 -8 13 -10 23 -19 21 -21z m79 -57 c3 3 2 0 -3 -6 -10 -12 -31 -4
-31 13 0 7 4 7 13 -1 8 -6 17 -9 21 -6z"/>
<path d="M1486 915 c-9 -26 -7 -32 5 -12 6 10 9 21 6 23 -2 3 -7 -2 -11 -11z"/>
<path d="M1595 919 c-4 -6 -4 -13 -1 -16 3 -4 6 0 6 8 0 11 2 11 10 -1 8 -13
10 -12 10 3 0 19 -15 23 -25 6z"/>
<path d="M1863 914 c0 -16 6 -17 25 -5 11 6 9 9 -5 13 -12 3 -20 0 -20 -8z"/>
<path d="M980 906 c0 -22 23 -36 37 -21 9 10 6 15 -13 24 -19 8 -24 8 -24 -3z"/>
<path d="M1220 905 c-11 -13 -10 -14 4 -9 9 3 16 10 16 15 0 13 -6 11 -20 -6z"/>
<path d="M1450 900 c0 -5 5 -10 10 -10 6 0 10 5 10 10 0 6 -4 10 -10 10 -5 0
-10 -4 -10 -10z"/>
<path d="M1506 901 c-4 -5 1 -8 9 -7 21 3 31 16 12 16 -9 0 -18 -4 -21 -9z"/>
<path d="M1560 900 c0 -5 5 -10 10 -10 6 0 10 5 10 10 0 6 -4 10 -10 10 -5 0
-10 -4 -10 -10z"/>
<path d="M1658 903 c6 -2 18 -2 25 0 6 3 1 5 -13 5 -14 0 -19 -2 -12 -5z"/>
<path d="M922 880 c-7 -11 -8 -20 -2 -20 5 0 14 9 20 20 6 11 7 20 3 20 -5 0
-14 -9 -21 -20z"/>
<path d="M1039 873 c-12 -16 -12 -17 2 -6 9 7 20 9 24 5 5 -4 5 -1 1 6 -9 16
-11 15 -27 -5z"/>
<path d="M1233 875 c0 -8 4 -15 9 -15 4 0 8 4 8 9 0 6 -4 12 -8 15 -5 3 -9 -1
-9 -9z"/>
<path d="M1354 875 c3 -8 0 -15 -7 -15 -7 0 -4 -5 6 -11 10 -6 23 -8 30 -5 7
2 5 5 -5 5 -11 1 -16 8 -13 21 2 11 -1 20 -7 20 -5 0 -8 -7 -4 -15z"/>
<path d="M950 876 c0 -2 7 -6 15 -10 8 -3 15 -1 15 4 0 6 -7 10 -15 10 -8 0
-15 -2 -15 -4z"/>
<path d="M1441 868 c-1 -10 9 -22 22 -28 19 -9 20 -9 6 2 -9 7 -18 20 -22 28
-4 12 -6 12 -6 -2z"/>
<path d="M1485 870 c-16 -7 -17 -9 -3 -9 9 -1 20 4 23 9 7 11 7 11 -20 0z"/>
<path d="M1525 869 c-3 -3 3 -9 13 -11 11 -3 19 0 19 7 0 13 -25 16 -32 4z"/>
<path d="M1300 850 c8 -5 20 -10 25 -10 6 0 3 5 -5 10 -8 5 -19 10 -25 10 -5
0 -3 -5 5 -10z"/>
<path d="M1580 851 c0 -6 4 -13 10 -16 6 -3 7 1 4 9 -7 18 -14 21 -14 7z"/>
<path d="M1411 841 c-11 -7 -11 -9 0 -14 11 -4 10 -6 -2 -6 -9 -1 -16 -8 -16
-16 0 -13 2 -13 17 0 9 8 17 22 17 30 0 8 -1 15 -1 15 -1 0 -7 -4 -15 -9z"/>
<path d="M1516 839 c2 -4 -1 -9 -7 -11 -7 -2 -6 -8 4 -16 10 -9 17 -10 22 -2
3 5 1 10 -6 10 -8 0 -9 4 0 13 8 10 7 14 -4 14 -8 0 -12 -4 -9 -8z"/>
<path d="M1790 835 c-7 -8 -8 -15 -2 -15 5 0 15 7 22 15 7 8 8 15 2 15 -5 0
-15 -7 -22 -15z"/>
<path d="M1630 826 c0 -2 8 -10 18 -17 15 -13 16 -12 3 4 -13 16 -21 21 -21
13z"/>
<path d="M1243 803 c0 -9 4 -10 11 -3 13 13 43 13 49 0 3 -6 4 -5 3 2 -4 18
-63 19 -63 1z"/>
<path d="M1195 800 c3 -5 8 -10 11 -10 2 0 4 5 4 10 0 6 -5 10 -11 10 -5 0 -7
-4 -4 -10z"/>
<path d="M1442 799 c2 -8 -3 -13 -10 -11 -8 1 -11 -2 -7 -8 3 -6 11 -8 16 -5
5 4 9 1 9 -4 0 -14 27 -14 35 -1 4 6 -1 7 -11 3 -11 -4 -15 -2 -11 4 4 6 0 17
-9 24 -12 10 -15 10 -12 -2z"/>
<path d="M1695 800 c-3 -5 -1 -10 4 -10 6 0 11 5 11 10 0 6 -2 10 -4 10 -3 0
-8 -4 -11 -10z"/>
<path d="M970 786 c0 -2 7 -6 15 -10 8 -3 15 -1 15 4 0 6 -7 10 -15 10 -8 0
-15 -2 -15 -4z"/>
<path d="M1360 780 c-8 -5 -12 -12 -9 -15 4 -3 12 1 19 10 14 17 11 19 -10 5z"/>
<path d="M1735 780 c-3 -5 -1 -10 4 -10 6 0 11 5 11 10 0 6 -2 10 -4 10 -3 0
-8 -4 -11 -10z"/>
<path d="M1513 763 c0 -10 4 -10 16 -1 9 7 18 13 20 15 2 1 -5 1 -16 0 -11 0
-20 -7 -20 -14z"/>
<path d="M1270 760 c0 -6 7 -10 15 -10 8 0 15 2 15 4 0 2 -7 6 -15 10 -8 3
-15 1 -15 -4z"/>
<path d="M1314 758 c-4 -7 -4 -10 1 -6 4 4 15 2 24 -5 14 -11 14 -10 2 6 -16
20 -18 21 -27 5z"/>
<path d="M1415 750 c3 -5 11 -10 16 -10 6 0 7 5 4 10 -3 6 -11 10 -16 10 -6 0
-7 -4 -4 -10z"/>
<path d="M1555 730 c-10 -11 -16 -22 -14 -24 2 -2 12 7 22 20 22 29 17 32 -8
4z"/>
<path d="M1286 723 c-6 -14 -5 -15 5 -6 7 7 10 15 7 18 -3 3 -9 -2 -12 -12z"/>
<path d="M1356 732 c-4 -7 -4 -12 0 -12 4 0 -3 -12 -16 -27 l-24 -28 28 26
c16 15 26 33 24 40 -3 10 -6 10 -12 1z"/>
<path d="M1320 720 c-9 -6 -10 -10 -3 -10 6 0 15 5 18 10 8 12 4 12 -15 0z"/>
<path d="M1090 710 c0 -5 7 -10 15 -10 8 0 15 5 15 10 0 6 -7 10 -15 10 -8 0
-15 -4 -15 -10z"/>
<path d="M1408 698 c5 -5 16 -8 23 -6 8 3 3 7 -10 11 -17 4 -21 3 -13 -5z"/>
<path d="M1275 691 c-3 -5 -1 -12 4 -16 6 -3 7 -13 4 -22 -4 -11 -3 -14 5 -9
16 10 15 36 0 37 -7 0 -4 4 7 9 16 7 17 9 3 9 -9 1 -19 -3 -23 -8z"/>
<path d="M1480 690 c0 -6 5 -10 11 -10 5 0 7 -5 3 -12 -4 -7 -3 -8 4 -4 16 10
15 23 -3 30 -8 3 -15 1 -15 -4z"/>
<path d="M1621 686 c-7 -8 -8 -17 -3 -20 6 -3 12 3 15 14 6 24 4 25 -12 6z"/>
<path d="M1344 668 c-5 -8 -2 -9 10 -5 11 4 15 3 10 -4 -3 -6 -15 -8 -25 -6
-14 4 -19 1 -17 -11 2 -11 -3 -16 -14 -14 -9 1 -22 -7 -28 -18 -7 -13 -7 -20
0 -20 5 0 10 7 10 15 0 8 5 15 11 15 11 0 4 -15 -19 -43 -14 -16 -14 -17 -1
-12 9 3 22 -2 30 -11 8 -9 13 -18 11 -18 -7 -2 10 -36 18 -36 4 0 11 7 14 15
3 10 1 15 -7 13 -7 -2 -13 2 -14 7 0 6 3 9 8 8 5 -2 9 2 9 7 0 6 -5 10 -11 10
-5 0 -7 6 -3 13 6 9 5 9 -8 0 -28 -23 -32 10 -5 45 8 10 13 10 26 0 14 -12 14
-11 2 5 -16 20 -3 22 22 3 11 -9 14 -17 8 -20 -6 -4 -8 -13 -5 -21 4 -8 10
-13 14 -10 5 3 11 1 15 -5 10 -16 23 -12 30 9 4 13 13 18 27 16 20 -4 20 -4 3
15 -19 21 -30 27 -20 10 3 -5 1 -10 -4 -10 -6 0 -11 -7 -11 -15 0 -8 -5 -15
-11 -15 -5 0 -7 5 -4 10 3 6 -2 10 -11 10 -10 0 -14 3 -11 7 4 3 2 12 -4 19
-6 8 -9 20 -6 28 3 8 -1 17 -9 20 -21 8 -22 8 -30 -6z"/>
<path d="M1560 665 c-7 -9 -8 -15 -2 -15 5 0 12 7 16 15 3 8 4 15 2 15 -2 0
-9 -7 -16 -15z"/>
<path d="M1404 644 c3 -8 6 -18 6 -20 0 -2 4 -4 8 -4 15 0 9 29 -6 35 -10 4
-12 0 -8 -11z"/>
<path d="M1527 624 c-3 -3 -3 -12 0 -20 3 -9 -2 -12 -16 -9 -12 2 -19 0 -16
-6 4 -5 2 -9 -3 -9 -6 0 -8 -9 -5 -20 5 -17 7 -17 30 10 15 18 21 35 17 42 -6
9 -3 9 9 -1 15 -12 17 -11 17 3 0 16 -21 22 -33 10z"/>
<path d="M1570 611 c0 -6 4 -13 10 -16 6 -3 7 1 4 9 -7 18 -14 21 -14 7z"/>
<path d="M1454 558 c0 -13 6 -26 11 -30 6 -5 6 -8 -2 -8 -6 0 -18 7 -26 15
-13 12 -15 12 -20 -5 -2 -10 0 -23 6 -29 7 -7 7 -17 -1 -33 -6 -13 -11 -17
-11 -10 -1 6 -9 12 -18 13 -11 0 -13 3 -5 6 6 2 12 11 12 20 0 13 -2 12 -15
-1 -13 -13 -13 -19 -3 -35 20 -32 36 -33 52 -3 9 15 15 23 16 18 0 -6 6 -1 14
9 8 11 12 33 10 49 -4 36 -22 57 -20 24z m-14 -49 c0 -5 5 -7 12 -3 7 4 8 3 4
-5 -6 -9 -11 -9 -22 0 -17 14 -18 19 -4 19 6 0 10 -5 10 -11z"/>
<path d="M1374 546 c11 -9 24 -16 30 -16 12 0 7 5 -24 19 -24 11 -24 11 -6 -3z"/>
<path d="M1327 460 c-3 -11 -3 -20 -1 -20 2 0 8 9 14 20 6 11 7 20 2 20 -6 0
-12 -9 -15 -20z"/>
<path d="M1243 455 c0 -8 4 -15 9 -15 4 0 8 7 8 15 0 8 -4 15 -8 15 -5 0 -9
-7 -9 -15z"/>
<path d="M1273 443 c0 -16 2 -22 4 -15 3 6 9 12 15 12 6 0 8 -6 5 -14 -6 -16
16 -40 26 -29 4 3 7 -2 8 -13 0 -10 3 -13 6 -6 2 6 11 12 19 12 8 0 14 5 14
11 0 5 -6 7 -12 4 -7 -4 -6 0 3 7 13 11 14 15 3 25 -10 10 -14 8 -19 -9 -6
-16 -9 -18 -16 -7 -7 11 -9 10 -9 -4 0 -10 -4 -16 -10 -12 -5 3 -7 12 -4 20 4
8 -1 18 -10 21 -9 3 -13 10 -10 15 3 5 1 9 -4 9 -5 0 -9 -12 -9 -27z"/>
</g>
</svg>
