<?xml version="1.0" standalone="no"?>
<!DOCTYPE svg PUBLIC "-//W3C//DTD SVG 20010904//EN"
 "http://www.w3.org/TR/2001/REC-SVG-20010904/DTD/svg10.dtd">
<svg version="1.0" xmlns="http://www.w3.org/2000/svg"
 width="1060.000000pt" height="706.000000pt" viewBox="0 0 1060.000000 706.000000"
 preserveAspectRatio="xMidYMid meet">

<g transform="translate(0.000000,706.000000) scale(0.100000,-0.100000)"
fill="#000000" stroke="none">
<path d="M4150 6429 c-119 -23 -245 -123 -295 -232 -37 -81 -45 -142 -45 -353
0 -123 -4 -194 -10 -194 -6 0 -10 -40 -10 -99 0 -56 4 -103 10 -106 6 -3 10
-48 10 -100 0 -52 -4 -97 -10 -100 -6 -4 -10 -85 -10 -211 0 -129 4 -204 10
-204 6 0 10 -25 10 -55 0 -30 -4 -55 -10 -55 -6 0 -10 -75 -10 -204 0 -126 4
-207 10 -211 7 -4 10 -548 10 -1598 0 -956 4 -1622 10 -1666 22 -166 127 -294
286 -348 39 -13 45 -18 29 -24 -11 -4 486 -7 1105 -7 619 1 1114 4 1100 8 -24
6 -23 7 15 19 94 31 196 110 242 188 62 106 57 -28 65 1858 10 2228 10 2260 1
2860 -8 449 -11 515 -26 555 -27 69 -62 121 -108 165 -24 22 -35 30 -25 17 11
-12 16 -25 13 -29 -4 -3 -1 -13 5 -22 8 -10 4 -9 -9 3 -13 10 -21 22 -18 26 2
4 -14 25 -35 48 -79 81 -8 77 -1205 78 -586 1 -1080 -2 -1105 -7z m1607 -26
c-279 -2 -735 -2 -1015 0 -279 1 -50 2 508 2 558 0 787 -1 507 -2z m-1787 -77
c0 -2 -8 -10 -17 -17 -16 -13 -17 -12 -4 4 13 16 21 21 21 13z m564 -38 c9
-12 16 -35 16 -51 0 -40 26 -84 60 -102 44 -23 1206 -23 1250 0 34 18 60 62
60 102 0 16 7 39 16 52 16 22 18 23 203 19 213 -3 233 -10 308 -91 80 -86 74
150 71 -2682 l-3 -2530 -27 -51 c-35 -66 -98 -120 -162 -139 -75 -23 -2108
-22 -2183 0 -63 19 -134 80 -165 143 l-23 47 0 2550 0 2550 21 45 c28 59 77
108 139 136 46 22 62 24 227 24 171 0 177 -1 192 -22z m-620 -28 c-10 -16 -20
-28 -22 -26 -4 5 28 56 35 56 2 0 -4 -13 -13 -30z"/>
<path d="M5373 3779 c-52 -26 -120 -112 -176 -225 -42 -86 -44 -114 -5 -114
36 0 63 24 78 69 13 39 15 41 46 35 34 -6 65 5 102 39 28 26 28 22 -2 -39 -33
-68 -39 -91 -26 -99 25 -16 56 6 85 61 27 50 78 95 92 81 2 -3 -9 -32 -26 -66
-37 -72 -38 -81 -8 -81 35 1 63 32 92 101 15 35 47 101 71 146 24 44 44 86 44
93 0 7 -13 10 -32 8 -29 -3 -36 -10 -63 -65 -24 -48 -36 -63 -58 -68 -16 -4
-30 -5 -33 -2 -2 2 11 30 31 62 37 62 35 82 -7 71 -35 -9 -41 -16 -77 -78 -35
-62 -47 -74 -31 -32 17 45 12 91 -12 108 -29 20 -35 20 -85 -5z m12 -107 c-6
-29 -65 -96 -65 -74 0 16 61 114 67 108 3 -2 2 -18 -2 -34z"/>
<path d="M4248 3780 c-95 -29 -137 -124 -83 -188 14 -17 25 -35 25 -41 0 -19
-41 -33 -77 -26 -39 7 -63 -7 -63 -36 0 -24 29 -39 77 -39 103 0 194 120 133
175 -13 12 -20 29 -18 44 3 22 9 27 44 31 52 7 93 43 78 68 -12 19 -73 26
-116 12z"/>
<path d="M4519 3734 l-59 -57 14 47 c13 41 13 48 0 53 -26 10 -62 -14 -98 -64
-43 -59 -120 -229 -112 -249 14 -37 89 8 102 63 7 26 19 30 28 8 6 -16 30 -11
59 13 21 18 21 14 2 -31 -21 -50 -19 -57 14 -57 20 0 36 8 46 23 l16 22 -3
-30 c-4 -40 21 -44 64 -8 33 28 73 53 83 53 3 0 3 -16 -1 -35 -6 -32 -4 -35
19 -35 13 0 30 7 38 16 11 14 13 14 21 0 5 -9 20 -16 34 -16 19 0 29 10 46 45
25 52 35 56 44 18 10 -40 19 -48 54 -51 40 -3 47 16 21 67 -25 48 -25 51 -6
51 20 0 105 85 105 105 0 18 5 18 30 5 18 -9 16 -16 -26 -105 -53 -114 -58
-139 -27 -143 27 -4 52 30 122 159 36 69 58 99 74 103 26 6 71 62 62 76 -15
24 -156 -2 -196 -36 -22 -20 -29 -17 -29 10 0 31 -26 40 -83 31 -55 -9 -106
-62 -169 -175 -27 -47 -48 -82 -48 -78 0 4 15 49 34 101 33 90 37 139 14 153
-35 22 -138 -70 -220 -196 -62 -94 -64 -96 -38 -35 40 91 81 215 75 225 -14
23 -50 7 -106 -46z m471 -20 c0 -17 -55 -74 -71 -74 -12 0 7 38 34 68 24 26
37 28 37 6z m-264 -66 c-2 -7 -10 -30 -17 -50 -8 -26 -18 -38 -31 -38 -18 0
-17 4 9 50 15 27 32 50 36 50 5 0 6 -6 3 -12z"/>
<path d="M5845 3781 c-52 -9 -85 -31 -124 -86 -123 -171 -75 -318 75 -230 76
45 168 215 148 277 -14 49 -22 52 -99 39z m-15 -154 c-38 -101 -110 -176 -110
-114 0 38 119 205 127 180 2 -6 -6 -35 -17 -66z"/>
<path d="M6321 3776 c-25 -6 -49 -20 -55 -31 -6 -11 -28 -48 -49 -82 -44 -70
-77 -151 -77 -188 0 -30 31 -41 93 -31 57 9 87 30 80 56 -4 16 -14 20 -44 20
-22 0 -39 4 -39 9 0 16 49 61 68 61 18 0 52 28 52 43 0 4 -11 7 -25 7 -14 0
-25 6 -25 13 0 19 40 53 72 61 33 8 58 32 58 57 0 22 -38 24 -109 5z"/>
<path d="M6193 3773 c-24 -5 -55 -38 -88 -94 l-19 -34 -3 35 c-6 63 -13 80
-33 80 -26 0 -62 -50 -114 -161 -61 -130 -63 -139 -33 -139 26 0 55 28 83 80
l19 35 3 -53 c6 -101 59 -82 128 45 26 48 58 104 71 123 22 33 32 92 16 89 -5
-1 -18 -4 -30 -6z"/>
<path d="M4870 3291 c-8 -6 -18 -7 -23 -4 -29 18 -111 -42 -159 -116 -33 -53
-35 -45 -8 27 28 73 26 92 -7 92 -19 0 -42 -15 -81 -56 -30 -30 -51 -47 -49
-37 3 10 8 33 12 51 6 30 5 32 -23 32 -42 0 -85 -53 -144 -177 -57 -122 -60
-143 -19 -143 30 0 58 28 75 74 5 15 9 17 18 8 16 -16 43 -15 58 3 22 26 29
16 14 -20 -20 -49 -18 -65 9 -65 29 0 51 23 72 73 19 46 25 47 18 4 -13 -82
83 -117 164 -58 98 71 173 267 118 307 -22 16 -25 17 -45 5z m-35 -113 c-24
-82 -96 -195 -116 -182 -26 16 0 78 69 161 38 47 57 55 47 21z"/>
<path d="M5250 3287 c-9 -7 -24 -23 -33 -37 -12 -17 -17 -19 -17 -9 0 25 -33
49 -67 49 -108 0 -233 -140 -233 -261 0 -57 18 -74 74 -73 59 1 104 27 104 60
0 25 -2 26 -43 19 -50 -7 -59 2 -50 46 7 32 83 119 103 119 7 0 12 -11 12 -25
0 -20 5 -25 24 -25 14 0 28 5 31 10 3 6 10 10 15 10 5 0 -11 -44 -36 -97 -24
-54 -44 -104 -44 -110 0 -7 11 -13 24 -13 16 0 31 12 50 41 l27 40 44 -40 c56
-51 80 -47 72 12 -3 22 -15 53 -26 68 l-21 28 29 6 c38 8 111 71 111 96 0 27
-37 24 -83 -7 -21 -14 -40 -24 -42 -22 -3 2 11 27 30 56 19 28 35 56 35 62 0
14 -72 12 -90 -3z"/>
<path d="M5852 3293 c-14 -3 -38 -28 -64 -66 -119 -176 -172 -202 -87 -42 40
76 44 105 15 105 -25 0 -54 -39 -102 -134 -49 -97 -57 -152 -26 -179 21 -19
64 -22 93 -7 13 8 19 7 19 0 0 -6 12 -10 28 -8 24 3 35 19 104 162 43 87 75
162 72 167 -5 9 -12 9 -52 2z"/>
<path d="M6007 3279 c-21 -11 -57 -46 -80 -78 -44 -59 -127 -210 -127 -230 0
-6 9 -15 19 -21 34 -18 70 4 92 58 19 47 21 47 59 44 52 -5 93 24 126 90 61
121 16 192 -89 137z m22 -101 c-9 -34 -54 -86 -64 -76 -8 7 53 108 65 108 5 0
4 -14 -1 -32z"/>
<path d="M5430 3142 c-35 -16 -69 -45 -64 -53 10 -17 146 -10 184 9 59 29 46
47 -35 49 -38 1 -77 -1 -85 -5z"/>
</g>
</svg>
